<svg xmlns="http://www.w3.org/2000/svg" viewBox="0 0 56.17 56.17"><defs><style>.cls-1{fill:#fff;}.cls-2{fill:#3a464a;}</style></defs><g id="圖層_2" data-name="圖層 2"><g id="分離模式"><path class="cls-1" d="M44.38,36.61c0,2.4-7.31,4.35-16.3,4.35s-16.3-2-16.3-4.35V19.81c0-2.88,8.29-4.6,16.3-4.6s16.3,1.72,16.3,4.6Z"/><path class="cls-2" d="M21.53,18.86c-2,0-2,1.9,0,1.9s2.2-.4,2.25-1S23.48,18.86,21.53,18.86Z"/><path class="cls-2" d="M28.08,15.8c-9.23,0-15.42,2.07-15.42,4s6.19,4,15.42,4,15.43-2.07,15.43-4S37.31,15.8,28.08,15.8Zm-6.75,5.51c-3,0-7.5-.65-7.5-1.5s4.45-1.5,7.5-1.5,3.5.65,3.5,1.5S24.38,21.31,21.33,21.31Z"/><path class="cls-2" d="M28.08,0A28.09,28.09,0,1,0,56.17,28.08,28.08,28.08,0,0,0,28.08,0Zm16.3,36.61c0,2.4-7.31,4.35-16.3,4.35s-16.3-2-16.3-4.35V19.81c0-2.88,8.29-4.6,16.3-4.6s16.3,1.72,16.3,4.6Z"/></g></g></svg>