<svg xmlns="http://www.w3.org/2000/svg" viewBox="0 0 50 39.49"><defs><style>.cls-1,.cls-2{fill:#3a464a;}.cls-1{opacity:0.3;}.cls-3{isolation:isolate;}.cls-4{fill:#fff;}</style></defs><g id="圖層_2" data-name="圖層 2"><g id="分離模式"><path class="cls-1" d="M25,12.57c-12.71,0-21.25-2.85-21.25-5.51S12.29,1.54,25,1.54,46.25,4.39,46.25,7.06,37.71,12.57,25,12.57Z"/><path class="cls-2" d="M17.44,5C13.28,5,7.21,5.9,7.21,7.06s6.07,2,10.23,2,4.77-.89,4.77-2S21.6,5,17.44,5Zm.27,3.34c-2.66,0-2.66-2.59,0-2.59s3.07.61,3.07,1.3S20.3,8.35,17.71,8.35Z"/><path class="cls-2" d="M25,0C12.71,0,0,2.64,0,7.06V32.82c0,3.68,11.21,6.67,25,6.67s25-3,25-6.67V7.06C50,2.64,37.29,0,25,0Zm0,12.57c-12.71,0-21.25-2.85-21.25-5.51S12.29,1.54,25,1.54,46.25,4.39,46.25,7.06,37.71,12.57,25,12.57Z"/><g id="Sign_up" data-name="Sign up" class="cls-3"><g class="cls-3"><path class="cls-4" d="M18.74,26.56l-1.7.32-.89-4.79h0l-.63,1.49c-.33.77-.66,1.6-1,2.47H13.18c-.33-.87-.66-1.71-1-2.5s-.55-1.28-.63-1.46h0q-.06.26-.36,1.74c-.2,1-.39,2-.57,3.05L9,26.56c.37-1.65.69-3.15.95-4.49s.43-2.1.47-2.31l1.7-.18c.05.14.25.64.59,1.52s.74,1.86,1.2,3h0c.37-.89.75-1.84,1.16-2.86s.64-1.56.67-1.64l1.73.15.39,2.16C18.1,23.22,18.39,24.77,18.74,26.56Z"/><path class="cls-4" d="M27,23.23a3.86,3.86,0,0,1-.31,1.57A3.46,3.46,0,0,1,25.81,26a3.38,3.38,0,0,1-1.18.73,4.22,4.22,0,0,1-1.39.23,4.16,4.16,0,0,1-1.38-.22,3.34,3.34,0,0,1-1.15-.68,3.64,3.64,0,0,1-.9-1.24,4.07,4.07,0,0,1-.32-1.62,4,4,0,0,1,.27-1.5,3.62,3.62,0,0,1,.81-1.22,3.42,3.42,0,0,1,1.18-.76,4.23,4.23,0,0,1,2.92,0,3.2,3.2,0,0,1,1.17.72,3.55,3.55,0,0,1,.86,1.25A4.12,4.12,0,0,1,27,23.23Zm-1.8.06A3.25,3.25,0,0,0,25,22.23a2.1,2.1,0,0,0-.55-.88,2,2,0,0,0-.53-.35,1.83,1.83,0,0,0-.68-.12,1.74,1.74,0,0,0-1.24.51,2.24,2.24,0,0,0-.51.83,3,3,0,0,0-.18,1,3,3,0,0,0,.18,1.06,2.15,2.15,0,0,0,.53.81,1.67,1.67,0,0,0,.55.35,1.69,1.69,0,0,0,.68.14,1.8,1.8,0,0,0,.66-.13,1.76,1.76,0,0,0,.56-.37,2.14,2.14,0,0,0,.52-.79A2.69,2.69,0,0,0,25.18,23.29Z"/><path class="cls-4" d="M34.9,26.3l-1.62.63q-.2-.29-.78-1l-1.75-2.29,0-.1a2.41,2.41,0,0,0,.47-.19,1.69,1.69,0,0,0,.47-.32,1.48,1.48,0,0,0,.3-.42,1.28,1.28,0,0,0,.1-.56,1,1,0,0,0-.17-.57,1,1,0,0,0-.45-.38A1.76,1.76,0,0,0,31,21l-.49,0h-.32c0,.42,0,.85,0,1.29V25.3c0,.69,0,1.18,0,1.48H28.43c0-.27,0-.69,0-1.23s0-1.34,0-2.41V21.93c0-.53,0-1.28,0-2.25H30c.53,0,1,0,1.38,0a4.8,4.8,0,0,1,1.09.23,2.17,2.17,0,0,1,1.1.72,1.71,1.71,0,0,1,.36,1.07,1.84,1.84,0,0,1-.38,1.16,3.25,3.25,0,0,1-.77.73v0q.55.69,1.17,1.41A13.56,13.56,0,0,1,34.9,26.3Z"/><path class="cls-4" d="M41,26.78H35.81c0-.18,0-.59,0-1.22s0-1.42,0-2.39V21.62c0-.63,0-1.28,0-1.93H41V21H37.49v.85c0,.29,0,.56,0,.79h3.45v1.06H37.48c0,.41,0,.77,0,1.06v.73H41Z"/></g></g></g></g></svg>