<svg xmlns="http://www.w3.org/2000/svg" viewBox="0 0 126.47 65.73"><defs><style>.cls-1{fill:#3a464a;}.cls-2{fill:#ffa4a4;}</style></defs><g id="圖層_2" data-name="圖層 2"><g id="分離模式"><g id="圖層_2-2" data-name="圖層 2"><g id="分離模式-2" data-name="分離模式"><path class="cls-1" d="M124.8,38.83a12.56,12.56,0,0,0-3.2-3.3,1.32,1.32,0,0,1-.6-1.8,1.38,1.38,0,0,1,.3-.4l.6-.6a11.2,11.2,0,0,0,4.4-7,10.15,10.15,0,0,0-2.7-8.9,13.69,13.69,0,0,0-6.9-3.9c-.5-.1-.6-.3-.6-.8a11.13,11.13,0,0,0-1.7-5.6,13.28,13.28,0,0,0-5.6-4.6,24.48,24.48,0,0,0-8-1.8,23.5,23.5,0,0,0-6.5.2A28.14,28.14,0,0,0,85,3.73H0V62H84.9c4.1,2.6,7.8,2.8,12.8,3.6.1,0,.2.1.3.1h2.5a17.85,17.85,0,0,1,2.3-.2,17.39,17.39,0,0,0,8.7-3.7,9.81,9.81,0,0,0,3.7-5.4.66.66,0,0,1,.4-.5,34.6,34.6,0,0,0,6.7-4.6,13.11,13.11,0,0,0,3.5-4.6A8,8,0,0,0,124.8,38.83ZM96.4,7.73a9,9,0,0,1,10.5.1,4.48,4.48,0,0,1,1.2,6.2,5.73,5.73,0,0,1-1.1,1.1,8.57,8.57,0,0,1-5.4,1.8,9.22,9.22,0,0,1-5.1-1.5C93.7,13.33,93.6,9.83,96.4,7.73Zm10.2,51.7a8.9,8.9,0,0,1-5,1.5,9.66,9.66,0,0,1-5-1.4,4.57,4.57,0,0,1-1.6-6.3,4.1,4.1,0,0,1,1.6-1.6,8.88,8.88,0,0,1,10.1,0C109.6,53.73,109.6,57.33,106.6,59.43Zm11.7-12.3c-1.4,1.1-3.3,1.6-6.1,1.5a7.11,7.11,0,0,1-4-1.6c-2.8-2.1-2.8-5.4-.1-7.6a8.85,8.85,0,0,1,10.5,0,4.52,4.52,0,0,1,1.1,6.4A4.36,4.36,0,0,1,118.3,47.13Zm0-18.5a8.18,8.18,0,0,1-5,1.5,9,9,0,0,1-5-1.6c-2.9-2-3-5.5-.2-7.7a9.18,9.18,0,0,1,10.5.1,4.52,4.52,0,0,1,1.1,6.4A4.36,4.36,0,0,1,118.3,28.63Z"/></g></g><path class="cls-2" d="M96.4,7.73a9,9,0,0,1,10.5.1,4.48,4.48,0,0,1,1.2,6.2,5.73,5.73,0,0,1-1.1,1.1,8.57,8.57,0,0,1-5.4,1.8,9.22,9.22,0,0,1-5.1-1.5C93.7,13.33,93.6,9.83,96.4,7.73Z"/><path class="cls-2" d="M118.3,28.63a8.18,8.18,0,0,1-5,1.5,9,9,0,0,1-5-1.6c-2.9-2-3-5.5-.2-7.7a9.18,9.18,0,0,1,10.5.1,4.52,4.52,0,0,1,1.1,6.4A4.36,4.36,0,0,1,118.3,28.63Z"/><path class="cls-2" d="M118.3,47.13c-1.4,1.1-3.3,1.6-6.1,1.5a7.11,7.11,0,0,1-4-1.6c-2.8-2.1-2.8-5.4-.1-7.6a8.85,8.85,0,0,1,10.5,0,4.52,4.52,0,0,1,1.1,6.4A4.36,4.36,0,0,1,118.3,47.13Z"/><path class="cls-2" d="M106.6,59.43a8.9,8.9,0,0,1-5,1.5,9.66,9.66,0,0,1-5-1.4,4.57,4.57,0,0,1-1.6-6.3,4.1,4.1,0,0,1,1.6-1.6,8.88,8.88,0,0,1,10.1,0C109.6,53.73,109.6,57.33,106.6,59.43Z"/></g></g></svg>