<svg xmlns="http://www.w3.org/2000/svg" viewBox="0 0 126.45 65.73"><defs><style>.cls-1{fill:#3a464a;}.cls-2{fill:#f1bf72;}</style></defs><g id="圖層_2" data-name="圖層 2"><g id="分離模式"><path class="cls-1" d="M124.79,38.83a12.56,12.56,0,0,0-3.2-3.3,1.32,1.32,0,0,1-.3-2.2l.6-.6a10.8,10.8,0,0,0,4.4-7,10.36,10.36,0,0,0-2.7-8.9,13.59,13.59,0,0,0-6.9-3.9c-.5-.1-.6-.3-.6-.8a11.13,11.13,0,0,0-1.7-5.6,12.58,12.58,0,0,0-5.6-4.6,24.48,24.48,0,0,0-8-1.8,23.62,23.62,0,0,0-6.5.2A26.63,26.63,0,0,0,85,3.7H0V62H84.87c4.1,2.55,7.82,2.85,12.82,3.6.1,0,.2.1.3.1h2.5a16.41,16.41,0,0,1,2.3-.2,17.39,17.39,0,0,0,8.7-3.7,10.17,10.17,0,0,0,3.7-5.4.66.66,0,0,1,.4-.5,34.6,34.6,0,0,0,6.7-4.6,13.11,13.11,0,0,0,3.5-4.6A7.8,7.8,0,0,0,124.79,38.83ZM96.39,7.73a9,9,0,0,1,10.5.1,4.44,4.44,0,0,1,.1,7.3,8.38,8.38,0,0,1-5.4,1.8,9.83,9.83,0,0,1-5.1-1.5C93.69,13.33,93.59,9.83,96.39,7.73Zm10.2,51.7a8.9,8.9,0,0,1-5,1.5,10.39,10.39,0,0,1-5-1.4,4.59,4.59,0,0,1,0-7.9,8.88,8.88,0,0,1,10.1,0C109.59,53.73,109.59,57.33,106.59,59.43Zm11.7-12.3c-1.4,1.1-3.3,1.6-6.1,1.5a7.4,7.4,0,0,1-4-1.6c-2.8-2.1-2.8-5.4-.1-7.6a9,9,0,0,1,10.5,0A4.58,4.58,0,0,1,118.29,47.13Zm0-18.5a8.18,8.18,0,0,1-5,1.5,8.49,8.49,0,0,1-5-1.6c-2.9-2-3-5.5-.2-7.7a9.18,9.18,0,0,1,10.5.1A4.58,4.58,0,0,1,118.29,28.63Z"/><path class="cls-2" d="M96.39,7.73a9,9,0,0,1,10.5.1,4.44,4.44,0,0,1,.1,7.3,8.38,8.38,0,0,1-5.4,1.8,9.83,9.83,0,0,1-5.1-1.5C93.69,13.33,93.59,9.83,96.39,7.73Z"/><path class="cls-2" d="M106.59,59.43a8.9,8.9,0,0,1-5,1.5,10.39,10.39,0,0,1-5-1.4,4.59,4.59,0,0,1,0-7.9,8.88,8.88,0,0,1,10.1,0C109.59,53.73,109.59,57.33,106.59,59.43Z"/><path class="cls-2" d="M118.29,47.13c-1.4,1.1-3.3,1.6-6.1,1.5a7.4,7.4,0,0,1-4-1.6c-2.8-2.1-2.8-5.4-.1-7.6a9,9,0,0,1,10.5,0A4.58,4.58,0,0,1,118.29,47.13Z"/><path class="cls-2" d="M118.29,28.63a8.18,8.18,0,0,1-5,1.5,8.49,8.49,0,0,1-5-1.6c-2.9-2-3-5.5-.2-7.7a9.18,9.18,0,0,1,10.5.1A4.58,4.58,0,0,1,118.29,28.63Z"/></g></g></svg>