<?xml version="1.0" encoding="utf-8"?>
<!-- Generator: Adobe Illustrator 25.0.1, SVG Export Plug-In . SVG Version: 6.00 Build 0)  -->
<svg version="1.1" id="圖層_1" xmlns="http://www.w3.org/2000/svg" xmlns:xlink="http://www.w3.org/1999/xlink" x="0px" y="0px"
	 viewBox="0 0 126.4 65.7" style="enable-background:new 0 0 126.4 65.7;" xml:space="preserve">
<style type="text/css">
	.st0{fill:#74BAD1;}
	.st1{fill:#F9C474;}
	.st2{fill:#FFFFFF;}
</style>
<g id="圖層_2_1_">
	<g id="分離模式">
		<path class="st0" d="M1.7,26.9c0.9,1.3,1.9,2.4,3.2,3.3c0.7,0.3,0.9,1.1,0.6,1.8c-0.1,0.2-0.2,0.3-0.3,0.4L4.6,33
			c-2.3,1.7-3.9,4.2-4.4,7c-0.6,3.2,0.4,6.5,2.7,8.9c1.9,2,4.3,3.3,6.9,3.9c0.5,0.1,0.6,0.3,0.6,0.8c0.1,2,0.6,3.9,1.7,5.6
			c1.4,2,3.3,3.6,5.6,4.6c2.5,1,5.3,1.7,8,1.8c2.2,0.2,4.4,0.2,6.5-0.2c3.3-0.6,6.4-1.7,9.3-3.4h85V3.7H41.6
			c-4.1-2.6-7.8-2.8-12.8-3.6c-0.1,0-0.2-0.1-0.3-0.1H26c-0.8,0.1-1.5,0.2-2.3,0.2c-3.2,0.4-6.2,1.7-8.7,3.7
			c-1.8,1.3-3.1,3.2-3.7,5.4c0,0.2-0.2,0.4-0.4,0.5c-2.4,1.3-4.7,2.8-6.7,4.6c-1.5,1.3-2.7,2.8-3.5,4.6C-0.4,21.6,0,24.6,1.7,26.9z
			 M30.1,58c-3.2,2.2-7.4,2.2-10.5-0.1c-2-1.4-2.6-4.1-1.2-6.2c0.3-0.4,0.7-0.8,1.1-1.1c1.5-1.2,3.4-1.8,5.4-1.8
			c1.8,0,3.6,0.5,5.1,1.5C32.8,52.4,32.9,55.9,30.1,58z M19.9,6.3c1.5-1,3.2-1.5,5-1.5s3.5,0.5,5,1.4c2.2,1.3,2.9,4.1,1.6,6.3
			c-0.4,0.7-0.9,1.2-1.6,1.6c-3,2.1-7.1,2.1-10.1,0C16.9,12,16.9,8.4,19.9,6.3z M8.2,18.6c1.4-1.1,3.3-1.6,6.1-1.5
			c1.5,0.1,2.9,0.7,4,1.6c2.8,2.1,2.8,5.4,0.1,7.6c-3.1,2.3-7.4,2.3-10.5,0c-2.1-1.4-2.6-4.3-1.1-6.4C7.2,19.4,7.6,18.9,8.2,18.6z
			 M8.2,37.1c1.5-1,3.2-1.6,5-1.5c1.8,0,3.5,0.6,5,1.6c2.9,2,3,5.5,0.2,7.7C15.2,47.1,11,47,7.9,44.8c-2.1-1.4-2.6-4.3-1.1-6.4
			C7.2,37.9,7.6,37.4,8.2,37.1z"/>
	</g>
</g>
<path class="st1" d="M30.1,58c-3.2,2.2-7.4,2.2-10.5-0.1c-2-1.4-2.6-4.1-1.2-6.2c0.3-0.4,0.7-0.8,1.1-1.1c1.5-1.2,3.4-1.8,5.4-1.8
	c1.8,0,3.6,0.5,5.1,1.5C32.8,52.4,32.9,55.9,30.1,58z"/>
<path class="st1" d="M8.2,37.1c1.5-1,3.2-1.6,5-1.5c1.8,0,3.5,0.6,5,1.6c2.9,2,3,5.5,0.2,7.7C15.2,47.1,11,47,7.9,44.8
	c-2.1-1.4-2.6-4.3-1.1-6.4C7.2,37.9,7.6,37.4,8.2,37.1z"/>
<path class="st1" d="M8.2,18.6c1.4-1.1,3.3-1.6,6.1-1.5c1.5,0.1,2.9,0.7,4,1.6c2.8,2.1,2.8,5.4,0.1,7.6c-3.1,2.3-7.4,2.3-10.5,0
	c-2.1-1.4-2.6-4.3-1.1-6.4C7.2,19.4,7.6,18.9,8.2,18.6z"/>
<path class="st1" d="M19.9,6.3c1.5-1,3.2-1.5,5-1.5s3.5,0.5,5,1.4c2.2,1.3,2.9,4.1,1.6,6.3c-0.4,0.7-0.9,1.2-1.6,1.6
	c-3,2.1-7.1,2.1-10.1,0C16.9,12,16.9,8.4,19.9,6.3z"/>
<g>
	<path class="st2" d="M49.8,27v14.2h-1.8v-3.1c-1.3,0.2-2.5,0.5-3.6,0.6L44,36.9l0.9-0.1V27h-0.7v-1.9h6.1V27H49.8z M48.1,27h-1.4
		v1.9h1.4V27z M48.1,30.7h-1.4v1.9h1.4V30.7z M48.1,36.3v-2h-1.4v2.2L48.1,36.3z M54.7,30c0.3,0.9,0.7,2.2,0.9,3l-1.3,0.4
		c-0.1-0.2-0.1-0.5-0.2-0.8c-2.9,0.4-3.4,0.5-3.7,0.6c-0.1-0.4-0.3-1.3-0.5-1.9c0.3-0.1,0.6-0.4,1-0.8c0.1-0.1,0.4-0.5,0.8-0.9
		c-0.8,0.1-1.1,0.2-1.3,0.3c-0.1-0.4-0.3-1.4-0.5-1.9c0.3-0.1,0.5-0.3,0.7-0.6c0.3-0.3,1.1-1.6,1.6-2.9l1.5,0.7
		c-0.6,1.1-1.3,2.3-1.9,3.1l0.8,0c0.3-0.5,0.6-1,0.9-1.6l1.4,0.7c-0.9,1.5-2,3-3,4.1l1.7-0.2c-0.1-0.3-0.2-0.6-0.3-0.9L54.7,30z
		 M53.3,33.4h1.8v2.7c0,1.9-0.6,4-3.3,5.2c-0.2-0.4-0.8-1.2-1.1-1.5c1.4-0.6,2.1-1.3,2.4-2.1h-2.3v-4.4h1.7V36h0.9V33.4z M59.9,33.3
		c-0.1-0.3-0.1-0.6-0.3-0.9c-2.9,0.5-3.4,0.6-3.7,0.8c-0.1-0.4-0.3-1.3-0.4-1.8c0.3-0.1,0.6-0.4,1-0.8c0.2-0.2,0.5-0.6,0.8-1.1
		c-1.1,0.1-1.4,0.2-1.6,0.3c-0.1-0.4-0.3-1.3-0.5-1.8c0.3-0.1,0.5-0.3,0.7-0.6c0.3-0.3,1.1-1.5,1.6-2.8l1.3,0.7
		c-0.5,1-1.1,2-1.7,2.8l1-0.1c0.3-0.5,0.5-1,0.7-1.5l1.4,0.7c-0.8,1.5-1.6,2.9-2.5,4l1.5-0.2c-0.1-0.3-0.2-0.6-0.3-0.9l1.2-0.4
		c0.4,1,0.9,2.2,1.1,3L59.9,33.3z M58.5,33.6h1.7v4.9h-1.7v-0.6h-0.9v3.4h-1.8v-7.8h1.8V36h0.9V33.6z"/>
	<path class="st2" d="M67.1,35.7c0-0.3-0.1-0.6-0.2-0.9c-3.3,0.5-3.8,0.7-4.2,0.9c-0.1-0.4-0.5-1.4-0.7-1.9c0.5-0.1,0.8-0.5,1.4-1.2
		c0.2-0.3,0.6-0.8,1.1-1.5c-1.4,0.2-1.8,0.3-2,0.4c-0.1-0.4-0.4-1.3-0.6-1.8c0.3-0.1,0.6-0.4,1-1c0.4-0.5,1.5-2.5,2.2-4.4l1.9,0.8
		c-0.7,1.5-1.6,3.1-2.6,4.4l1.2-0.1c0.5-0.8,0.9-1.6,1.3-2.4l1.8,1.1c-0.7,1.2-1.5,2.5-2.4,3.7l1.3-0.4c0.4,1.2,0.9,2.8,1,3.8
		L67.1,35.7z M64.5,36.5c-0.1,1.6-0.4,3.3-0.8,4.4c-0.4-0.2-1.2-0.5-1.7-0.6c0.4-1,0.6-2.7,0.7-4.1L64.5,36.5z M66.4,36.2
		c0.2,1.2,0.5,2.8,0.5,3.9l-1.6,0.3c0-1-0.2-2.7-0.4-3.9L66.4,36.2z M66.6,33.3c-0.1-0.4-0.2-0.9-0.4-1.3c-0.4,0.5-0.8,1-1.2,1.5
		L66.6,33.3z M68.2,35.7c0.4,1.1,0.8,2.5,1,3.4l-1.5,0.5c-0.1-0.9-0.6-2.4-0.9-3.5L68.2,35.7z M78.3,26.8c-0.7,1.8-1.7,3.3-2.9,4.7
		c1.1,0.8,2.4,1.5,3.8,2c-0.4,0.4-1.1,1.3-1.4,1.8h0v5.9h-2.1v-0.6H72v0.6h-2v-5.9l-0.4,0.2c-0.3-0.5-0.8-1.3-1.2-1.7
		c1.4-0.5,2.8-1.4,4.1-2.4c-0.5-0.6-1-1.2-1.4-1.8c-0.4,0.5-0.8,0.9-1.3,1.3c-0.3-0.4-1.1-1.2-1.6-1.5c1.6-1.2,3-3.1,3.8-5.1l2,0.6
		c-0.2,0.4-0.4,0.8-0.6,1.2h3l0.3-0.1L78.3,26.8z M76.4,34.6c-0.9-0.5-1.7-1.1-2.4-1.7c-0.8,0.7-1.6,1.2-2.4,1.7H76.4z M75.7,38.8
		v-2.3H72v2.3H75.7z M72.4,28.2c0.4,0.6,0.9,1.3,1.5,2c0.6-0.7,1.1-1.4,1.6-2.1h-3L72.4,28.2z"/>
	<path class="st2" d="M96,33c-0.8,1.5-1.8,2.8-3,3.9c0.5,1.4,1,2.2,1.6,2.2c0.4,0,0.6-0.9,0.7-3c0.5,0.5,1.2,1,1.8,1.2
		c-0.3,3.2-1,3.9-2.6,3.9c-1.3,0-2.3-1.1-3.1-2.8c-1,0.9-2.2,1.6-3.3,2.2c-0.3-0.5-0.9-1.2-1.4-1.7c1.4-0.6,2.8-1.5,4-2.5
		c-0.4-1.4-0.7-3.1-0.9-4.8H86v2.1c0.9-0.2,1.9-0.3,2.8-0.5l0.2,1.9L86,35.6v3.1c0,1.2-0.3,1.7-1,2.1c-0.7,0.3-1.8,0.4-3.2,0.4
		c-0.1-0.6-0.5-1.6-0.8-2.2c1,0.1,2.1,0,2.4,0c0.3,0,0.4-0.1,0.4-0.4v-2.6c-1.2,0.2-2.3,0.5-3.2,0.6l-0.5-2.2c1-0.2,2.3-0.4,3.7-0.6
		v-2.4h-3.4v-2h3.4v-2.1c-1,0.2-2,0.3-2.9,0.4c-0.1-0.5-0.4-1.3-0.6-1.8c2.5-0.3,5.3-0.9,7.1-1.5l1.4,1.8c-0.9,0.3-1.9,0.5-2.9,0.7
		v2.4h3.5c-0.1-1.6-0.2-3.3-0.2-4.9h2.3c0,1.7,0,3.3,0.2,4.9h4.9v2h-4.7c0.1,1.1,0.3,2.1,0.5,3c0.6-0.8,1.2-1.6,1.7-2.4L96,33z
		 M94.7,29c-0.5-0.8-1.6-2.1-2.6-3l1.6-1.1c1,0.8,2.1,2,2.7,2.9L94.7,29z"/>
	<path class="st2" d="M108.2,32.2h-3.1v8.9h-2V25.4c-0.4,1-0.8,2.1-1.2,3.1v12.7h-2v-9c-0.4,0.5-0.7,1-1.1,1.5
		c-0.2-0.5-0.7-1.7-1-2.3c1.5-1.7,2.8-4.3,3.6-7l2,0.6l-0.1,0.3h5.1V32.2z M105.1,27v1h1.5v-1H105.1z M106.6,30.6v-1.1h-1.5v1.1
		H106.6z M114.4,38.7c0,1.2-0.3,1.8-1,2.1c-0.7,0.3-1.9,0.4-3.6,0.4c-0.1-0.6-0.4-1.5-0.7-2.1c1.1,0.1,2.3,0.1,2.7,0
		c0.3,0,0.5-0.1,0.5-0.5v-6.5H109v-6.9h5.3V38.7z M110.7,27v1h1.6v-1H110.7z M112.3,30.6v-1.1h-1.6v1.1H112.3z"/>
</g>
</svg>
