<?xml version="1.0" encoding="utf-8"?>
<!-- Generator: Adobe Illustrator 25.0.1, SVG Export Plug-In . SVG Version: 6.00 Build 0)  -->
<svg version="1.1" id="圖層_1" xmlns="http://www.w3.org/2000/svg" xmlns:xlink="http://www.w3.org/1999/xlink" x="0px" y="0px"
	 viewBox="0 0 48.6 47.9" style="enable-background:new 0 0 48.6 47.9;" xml:space="preserve">
<style type="text/css">
	.st0{fill:#587F8D;}
</style>
<g id="圖層_2_1_">
	<g id="分離模式">
		<path class="st0" d="M27.5,23.9c0.1-1.6,0.1-3.2,0.3-4.7c0.2-2.1,1.4-3.3,3.6-3.3c2,0,3.4-0.8,3.4-3s-1.7-2.7-3.6-2.8
			c-6.8-0.4-10.3,2.7-10.5,9.5c-0.1,1.5,0,3,0,4.6c-2.8,0.6-7-1-7,3.5c0.1,4.2,4.1,2.8,6.8,3.4v16.9C9.9,47.9-0.1,36.2,0,24
			C0.3,10.6,11.5,0,24.9,0.3s24,11.5,23.7,24.9l0,0c-0.3,11.7-10.7,23.1-20.8,22.7c-0.1-0.6-0.2-1.1-0.2-1.7c0-5,0-9.9,0-15.1
			c2.9-0.6,7.3,0.8,6.8-4.2C34,22.7,30.1,25.1,27.5,23.9z"/>
	</g>
</g>
</svg>
