<svg xmlns="http://www.w3.org/2000/svg" viewBox="0 0 22 17.38"><defs><style>.cls-1{fill:#fff;}</style></defs><g id="圖層_2" data-name="圖層 2"><g id="分離模式"><path class="cls-1" d="M7.67,2.2c-1.83,0-4.5.39-4.5.9s2.67.9,4.5.9,2.1-.39,2.1-.9S9.5,2.2,7.67,2.2Zm.12,1.47c-1.17,0-1.17-1.14,0-1.14s1.35.27,1.35.57S8.93,3.67,7.79,3.67Z"/><path class="cls-1" d="M11,0C5.59,0,0,1.16,0,3.1V14.44c0,1.62,4.93,2.94,11,2.94s11-1.32,11-2.94V3.1C22,1.16,16.41,0,11,0Zm0,5.53c-5.59,0-9.35-1.25-9.35-2.43S5.41.68,11,.68s9.35,1.25,9.35,2.42S16.59,5.53,11,5.53Z"/></g></g></svg>