<svg xmlns="http://www.w3.org/2000/svg" viewBox="0 0 83.82 39.99"><defs><style>.cls-1{fill:#fff;}</style></defs><g id="圖層_2" data-name="圖層 2"><g id="分離模式"><path class="cls-1" d="M83.43,16.64c-.82-.51-1.58.11-2,.86-1,1.82-2.3,3.11-4.66,3a9.32,9.32,0,0,1-6.11-3.1A49.19,49.19,0,0,0,61.52,9.8c-2-1.23-4.16-2.44-6.42-2.62-8.83-.68-17.59-1.69-26.57-1-6.3.51-13.28.41-18.14-5.35-.34-.41-.73-1-1.28-.84a1.37,1.37,0,0,0-.79,1.54c.36,1.86-.75,2.8-2,3.7C3.94,6.94,4.51,9.64,4.14,11.92,4,13.15,7.35,14.69,8.85,14.26c4-1.11,5.29-.57,7.48,3a8.58,8.58,0,0,0,3.11,3.32c2.53,1.3.07,1.78-2.08,1.92-3.53.22-2.43.1-4.42.72-.49.15-1.92.67-2.26,1.48a2.81,2.81,0,0,0-.17.54,18.4,18.4,0,0,0-3.37-.9c-3.4-.58-6,.87-6.88,3.54-.74,2.36.11,4.86,2.59,6.93a19.1,19.1,0,0,0,9.75,4.52,5.94,5.94,0,0,0,4.64-1c.86-.65.89-1.34-.12-1.94-3.05-1.8-6.15-3.53-9.25-5.22-1.28-.7-2.63-1.25-3.94-1.89a12.38,12.38,0,0,1-1.16-.78c0-.12,0-.25.07-.37a6.83,6.83,0,0,1,1.87.18c2.54,1,5.1,1.89,7.56,3.07a56.84,56.84,0,0,1,5.54,3.33A14,14,0,0,1,19.38,36a10.55,10.55,0,0,0,.31-1.42c.16-2.21-1-4-2.69-5.46a21.25,21.25,0,0,0-3.07-2.26c.65-.37,1.33-.83,2-1.29,4.78-1.29,5.87,2.6,9.09.63.49,2.55,1,4.88,1.35,7.24.19,1.43.54,3.11-1.7,3.53A1,1,0,0,0,24,38.24a1.3,1.3,0,0,0,1.19.87c2.08.34,3.62-.14,3.89-2.46.43-3.66.88-7.33,1-11,.11-2.39,1-3.34,3.41-3.34,3.86,0,7.76.54,11.57-.56,1.17-.34,1.81.19,2.13,1.36a53.56,53.56,0,0,0,2.27,6.6c.93,2.23-1.4,5.41-4.32,6-1.11.23-2.06.41-1.85,1.71s1.45,1,2.23,1c3.21.06,8.4-5,8.48-8.25a22.24,22.24,0,0,1,1.3-5.94,40.6,40.6,0,0,0,12,7.07,5.62,5.62,0,0,1,3.1,6.77c-.23.82-.21,1.57.66,1.71s2.08.6,2.53-.74A4,4,0,0,0,74,36.45c-1.15-3.4-2.3-6.66-4.89-9.44s-5.44-6.08-5.24-10.69c1.83,1.53,3.61,3,5.37,4.48a13.84,13.84,0,0,0,6.65,2.77c3.5.63,6.4-1.33,7.64-4.94C83.72,18,84.13,17.08,83.43,16.64Z"/></g></g></svg>