<svg xmlns="http://www.w3.org/2000/svg" viewBox="0 0 28 22"><defs><style>.cls-1{fill:#fff;}</style></defs><g id="圖層_2" data-name="圖層 2"><g id="分離模式"><path class="cls-1" d="M6.85,22a3,3,0,1,1,0-5.95,3,3,0,1,1,0,5.95Zm0-4.2a1.23,1.23,0,1,0,0,2.44,1.23,1.23,0,1,0,0-2.44Z"/><path class="cls-1" d="M16,22a3.08,3.08,0,0,1-3.15-3,3.07,3.07,0,0,1,3.15-3A3,3,0,1,1,16,22Zm0-4.2A1.23,1.23,0,1,0,17.35,19,1.3,1.3,0,0,0,16,17.8Z"/><path class="cls-1" d="M26.92,0H22.19a1.05,1.05,0,0,0-1,.71L20.08,3.79h-19a1.09,1.09,0,0,0-.89.45,1,1,0,0,0-.12,1L3.52,14a1.09,1.09,0,0,0,1,.67H17.77a1.07,1.07,0,0,0,1-.71L23,2.08h4A1.05,1.05,0,0,0,28,1,1.06,1.06,0,0,0,26.92,0ZM18.44,8.44H15.12l.39-2.57h3.84Zm-8.81,0L9.25,5.87h4.18L13,8.44Zm3.12,1.92-.33,2.19H10.25l-.33-2.19ZM7.17,5.87l.39,2.57H3.88a1.55,1.55,0,0,0-.21,0l-1-2.61ZM4.41,10.36H7.85l.32,2.19H5.27ZM14.5,12.55l.33-2.19h2.94L17,12.55Z"/></g></g></svg>