<svg xmlns="http://www.w3.org/2000/svg" viewBox="0 0 27.22 22.89"><defs><style>.cls-1{fill:#091b2f;}.cls-2{fill:#081b2e;}</style></defs><g id="圖層_2" data-name="圖層 2"><g id="分離模式"><path class="cls-1" d="M6.66,22.89a3.1,3.1,0,1,1,3.06-3.1A3.09,3.09,0,0,1,6.66,22.89Zm0-4.37A1.28,1.28,0,1,0,8,19.79,1.3,1.3,0,0,0,6.66,18.52Z"/><path class="cls-1" d="M15.55,22.89a3.1,3.1,0,1,1,3.06-3.1A3.09,3.09,0,0,1,15.55,22.89Zm0-4.37a1.28,1.28,0,1,0,1.31,1.27A1.3,1.3,0,0,0,15.55,18.52Z"/><path class="cls-1" d="M4.4,15.22a1.06,1.06,0,0,1-1-.7L.07,5.41a1.12,1.12,0,0,1,.11-1,1,1,0,0,1,.87-.48h18.6a1.09,1.09,0,0,1,0,2.17H2.57l2.56,6.94h11.4l4-12.31a1,1,0,0,1,1-.74h4.6a1.07,1.07,0,0,1,1,1.08,1.07,1.07,0,0,1-1,1.09H22.32L18.27,14.49a1,1,0,0,1-1,.73Z"/><rect class="cls-2" x="7.44" y="4.07" width="2" height="10.56" rx="1" transform="matrix(0.99, -0.14, 0.14, 0.99, -1.22, 1.26)"/><rect class="cls-2" x="12.61" y="4.07" width="2" height="10.56" rx="1" transform="matrix(0.99, 0.14, -0.14, 0.99, 1.43, -1.8)"/><rect class="cls-2" x="9.89" y="1.73" width="2" height="16.1" rx="1" transform="translate(20.67 -1.1) rotate(90)"/></g></g></svg>