<svg xmlns="http://www.w3.org/2000/svg" viewBox="0 0 28 22.12"><defs><style>.cls-1{fill:#3a464a;}</style></defs><g id="圖層_2" data-name="圖層 2"><g id="分離模式"><path class="cls-1" d="M9.77,2.81C7.44,2.81,4,3.3,4,4S7.44,5.1,9.77,5.1,12.44,4.6,12.44,4,12.09,2.81,9.77,2.81Zm.15,1.87c-1.49,0-1.49-1.45,0-1.45s1.72.34,1.72.72S11.37,4.68,9.92,4.68Z"/><path class="cls-1" d="M14,0C7.12,0,0,1.48,0,4V18.38c0,2.06,6.28,3.74,14,3.74s14-1.68,14-3.74V4C28,1.48,20.88,0,14,0Zm0,7C6.88,7,2.1,5.44,2.1,4S6.88.86,14,.86,25.9,2.46,25.9,4,21.12,7,14,7Z"/></g></g></svg>