<svg xmlns="http://www.w3.org/2000/svg" viewBox="0 0 50 50"><defs><style>.cls-1{fill:#3a464a;}.cls-2{fill:#fff;}</style></defs><g id="圖層_2" data-name="圖層 2"><g id="分離模式"><circle class="cls-1" cx="25" cy="25" r="25"/><path class="cls-2" d="M42.27,17.82A10.36,10.36,0,0,0,32.2,7.74c-2.27-.06-4.64-.09-7.05-.09s-4.74,0-7.23.08A10.32,10.32,0,0,0,7.71,17.94c-.1,4.37-.1,9,0,14A10.46,10.46,0,0,0,18,42.31c.84,0,1.68,0,2.53,0h2.15l2.13,0,2.23,0h2.25c.91,0,1.83,0,2.74,0A10.42,10.42,0,0,0,42.28,32.09C42.4,27,42.4,22.38,42.27,17.82Zm-30,.58c.06-3.7,2.44-6,6.21-6.08,2.18,0,4.35-.05,6.53-.05s4.29,0,6.44.05c3.81.06,6.13,2.43,6.21,6.35,0,1.49,0,3,0,4.46v2c0,.7,0,1.4,0,2.1,0,1.43,0,2.92,0,4.37a5.84,5.84,0,0,1-6,6.08c-2.24,0-4.5.07-6.73.07s-4.5,0-6.73-.07a5.79,5.79,0,0,1-5.95-6.09C12.23,27.13,12.23,22.68,12.31,18.4Z"/><path class="cls-2" d="M24.86,33.46H25a8.52,8.52,0,0,0,8.45-8.13,8.51,8.51,0,0,0-8.19-8.76H25a8.49,8.49,0,0,0-8.46,8.25,8.49,8.49,0,0,0,8.31,8.64ZM25,19.83h.11A5.22,5.22,0,0,1,30.18,25a5.15,5.15,0,0,1-1.5,3.69,5.13,5.13,0,0,1-7.36,0A5.14,5.14,0,0,1,19.81,25,5.2,5.2,0,0,1,25,19.83Z"/><path class="cls-2" d="M34,18.53a2.3,2.3,0,1,0-2.3-2.3A2.31,2.31,0,0,0,34,18.53Z"/></g></g></svg>