<?xml version="1.0" encoding="utf-8"?>
<!-- Generator: Adobe Illustrator 25.0.1, SVG Export Plug-In . SVG Version: 6.00 Build 0)  -->
<svg version="1.1" id="圖層_1" xmlns="http://www.w3.org/2000/svg" xmlns:xlink="http://www.w3.org/1999/xlink" x="0px" y="0px"
	 viewBox="0 0 42 42" style="enable-background:new 0 0 42 42;" xml:space="preserve">
<style type="text/css">
	.st0{fill:#587F8D;}
</style>
<g id="圖層_2_1_">
	<g id="分離模式">
		<path class="st0" d="M41.9,12.3c-0.2-6.7-5.5-12-12.2-12.2C27,0,24.1,0,21.2,0s-5.7,0-8.7,0.1C5.7,0.2,0.2,5.7,0.1,12.4
			c-0.1,5.3-0.1,10.8,0,17c0,6.9,5.6,12.5,12.5,12.6c1,0,2,0,3.1,0h2.6h5.3h2.7c1.1,0,2.2,0,3.3,0c6.8-0.1,12.3-5.6,12.3-12.4
			C42,23.5,42,17.8,41.9,12.3z M5.7,13c0.1-4.5,3-7.3,7.5-7.4c2.7,0,5.3-0.1,7.9-0.1s5.2,0,7.8,0.1c4.6,0.1,7.4,3,7.5,7.7
			c0,1.8,0,3.6,0,5.4v2.4c0,0.9,0,1.7,0,2.5c0,1.7,0,3.5,0,5.3c-0.1,4.4-3,7.3-7.2,7.3c-2.7,0.1-5.5,0.1-8.1,0.1s-5.4,0-8.1-0.1
			c-4.3-0.1-7.1-3-7.2-7.4C5.6,23.6,5.6,18.2,5.7,13z"/>
		<path class="st0" d="M20.8,31.2H21c5.5,0,10-4.4,10.2-9.9c0.2-5.6-4.3-10.4-9.9-10.6H21c-5.6,0-10.2,4.5-10.2,10.2
			c0,2.7,1,5.2,2.9,7.1C15.5,30.1,18.1,31.2,20.8,31.2z M21,15.4h0.1c3,0.1,5.4,2.6,5.5,5.6c0,3.1-2.5,5.6-5.6,5.6s-5.6-2.5-5.6-5.6
			S17.9,15.4,21,15.4C21,15.4,21,15.4,21,15.4z"/>
		<path class="st0" d="M30.9,14.2c1.5,0,2.8-1.2,2.8-2.8s-1.2-2.8-2.8-2.8c-1.5,0-2.8,1.2-2.8,2.8S29.3,14.2,30.9,14.2L30.9,14.2z"
			/>
	</g>
</g>
</svg>
