<?xml version="1.0" encoding="utf-8"?>
<!-- Generator: Adobe Illustrator 25.0.1, SVG Export Plug-In . SVG Version: 6.00 Build 0)  -->
<svg version="1.1" id="圖層_1" xmlns="http://www.w3.org/2000/svg" xmlns:xlink="http://www.w3.org/1999/xlink" x="0px" y="0px"
	 viewBox="0 0 43.4 43.4" style="enable-background:new 0 0 43.4 43.4;" xml:space="preserve">
<style type="text/css">
	.st0{fill:#587F8D;}
</style>
<g id="圖層_2_1_">
	<g id="分離模式">
		<path class="st0" d="M25.7,12.9h-8c-0.5,0-0.9,0.3-1,0.8v16.4c0.1,0.5,0.5,0.9,1,0.8h8c0.5,0,0.9-0.3,1-0.8V13.7
			C26.7,13.2,26.2,12.8,25.7,12.9z"/>
		<path class="st0" d="M43.4,20.2c-0.5-6.5-3.9-12.5-9.3-16.2c-3.8-3-8.6-4.4-13.4-4C16,0.5,10.9,2.1,7.3,5.3
			c-3.9,3.6-6.4,8.5-7,13.8L0,23.9c0.3,6.1,3.4,11.6,8.5,15c4.5,3,9.8,4.6,15.2,4.5c4.3-0.2,8.5-1.7,11.9-4.4
			C40.8,34.8,43.8,28,43.4,20.2z M28.7,31.9c0,1.7-1.3,3-3,3h-8c-1.7,0-3-1.3-3-3v-20c0-1.7,1.3-3,3-3h8c1.7,0,3,1.3,3,3V31.9z"/>
	</g>
</g>
</svg>
