<svg xmlns="http://www.w3.org/2000/svg" viewBox="0 0 152.33 122.91"><defs><style>.cls-1{fill:#3a464a;}</style></defs><g id="圖層_2" data-name="圖層 2"><g id="分離模式"><path class="cls-1" d="M24.73,60.34H42.46a1,1,0,0,0,0-2H20.7c.35-1.06.71-2.11,1.07-3.17s-1.5-1.73-1.91-.52l-3,8.84c-.41,1.21,1.5,1.73,1.91.53s.83-2.47,1.25-3.7h2.73V75.1H17a1,1,0,0,0,0,2h5.42q-2.82,8.31-5.65,16.63c-.41,1.21,1.51,1.73,1.91.53l5.06-14.88,5.05,14.88.06.12a.91.91,0,0,0,.9.63h12a1,1,0,0,0,0-2H37l5.67-16.48a2.17,2.17,0,0,0,.07-.24,1,1,0,0,0,0-.44V63.11a.92.92,0,0,0-.27-.67l0,0h0a.92.92,0,0,0-.67-.27h-12a.91.91,0,0,0-.67.26l0,0,0,0a.92.92,0,0,0-.27.68v12h-4ZM34.51,93h-4q-2.71-8-5.41-15.93h4Q31.79,85,34.51,93ZM31.13,77.08h9.25L35.76,90.55Q33.45,83.82,31.13,77.08Zm-.39-13h10v11h-10Z"/><path class="cls-1" d="M54.05,60.34H71.79a1,1,0,0,0,0-2H50c.36-1.06.72-2.11,1.07-3.17s-1.5-1.73-1.91-.52l-3,8.84c-.41,1.21,1.5,1.73,1.91.53l1.26-3.7h2.72V75.1H46.33a1,1,0,0,0,0,2h5.42q-2.84,8.31-5.65,16.63c-.41,1.21,1.5,1.73,1.91.53l5.05-14.88,5.06,14.88a.61.61,0,0,0,.05.12.91.91,0,0,0,.9.63h12a1,1,0,0,0,0-2H66.33Q69.15,84.78,72,76.53a1.09,1.09,0,0,0,.07-.24.84.84,0,0,0,0-.44V63.11a.91.91,0,0,0-.26-.67l0,0h0a.92.92,0,0,0-.68-.27h-12a.91.91,0,0,0-.67.26l0,0,0,0a.92.92,0,0,0-.27.68v12h-4ZM63.84,93H59.79L54.38,77.08h4Q61.1,85,63.84,93ZM60.46,77.08h9.25q-2.33,6.74-4.63,13.47Zm-.4-13h10v11h-10Z"/><path class="cls-1" d="M92.76,64.89a15.48,15.48,0,0,0,.13-2A8.3,8.3,0,0,0,92.41,60,5.46,5.46,0,0,0,91,57.82a6.4,6.4,0,0,0-2.42-1.36A12.11,12.11,0,0,0,84.89,56h-4a1.36,1.36,0,0,0-.79.23,1.15,1.15,0,0,0-.45.8L76.21,74.1a1.1,1.1,0,0,0,0,.5.61.61,0,0,0,.16.31.66.66,0,0,0,.29.17,1.09,1.09,0,0,0,.36.06h4.25a14.7,14.7,0,0,0,3.27-.32A10.29,10.29,0,0,0,87,74a9.2,9.2,0,0,0,2-1.33,9.63,9.63,0,0,0,1.52-1.68A10.49,10.49,0,0,0,91.59,69a13.31,13.31,0,0,0,.75-2A15.47,15.47,0,0,0,92.76,64.89ZM90,65.32a11.6,11.6,0,0,1-.61,2.24,10.53,10.53,0,0,1-1.06,2.09,7.38,7.38,0,0,1-3.73,2.92,9,9,0,0,1-3,.44H79l3-14.9H84.6a7.9,7.9,0,0,1,2.68.38,4.51,4.51,0,0,1,1.66,1,3.94,3.94,0,0,1,1,1.58,6.42,6.42,0,0,1,.3,2A13.11,13.11,0,0,1,90,65.32Z"/><path class="cls-1" d="M105.52,71.33a10.35,10.35,0,0,0,1.13-3.16L109,56.38a.36.36,0,0,0,0-.21.39.39,0,0,0-.18-.14,2,2,0,0,0-.38-.08,3.27,3.27,0,0,0-.59,0,3.44,3.44,0,0,0-.61,0,2.33,2.33,0,0,0-.4.08.76.76,0,0,0-.24.14.41.41,0,0,0-.1.21l-2.33,11.69a8.46,8.46,0,0,1-.76,2.21,5.69,5.69,0,0,1-1.25,1.62,4.8,4.8,0,0,1-1.67,1,5.88,5.88,0,0,1-2,.34,5.34,5.34,0,0,1-1.93-.32,2.88,2.88,0,0,1-1.26-1,3.37,3.37,0,0,1-.57-1.63A7.61,7.61,0,0,1,94.8,68l2.32-11.66a.37.37,0,0,0,0-.21.39.39,0,0,0-.18-.14,2.25,2.25,0,0,0-.38-.08,3.44,3.44,0,0,0-.61,0,3.52,3.52,0,0,0-.61,0,3,3,0,0,0-.41.08.76.76,0,0,0-.24.14.41.41,0,0,0-.1.21L92.26,68.07a8.81,8.81,0,0,0-.14,3.19,4.83,4.83,0,0,0,1,2.3,4.64,4.64,0,0,0,2,1.39,8.63,8.63,0,0,0,3,.47,9.8,9.8,0,0,0,3-.46,7.59,7.59,0,0,0,4.37-3.63Z"/><path class="cls-1" d="M137.8,56.21a.41.41,0,0,0-.17-.14,1.34,1.34,0,0,0-.36-.09,4.45,4.45,0,0,0-.57,0,4.51,4.51,0,0,0-.58,0,1.52,1.52,0,0,0-.38.09.64.64,0,0,0-.22.14.49.49,0,0,0-.11.2l-2.08,10.37c-.16.81-.32,1.65-.48,2.51s-.31,1.71-.45,2.52h0l-.66-1.94L131,68l-3.63-10.34a7.23,7.23,0,0,0-.32-.78,1.84,1.84,0,0,0-.34-.49,1,1,0,0,0-.46-.27,2.3,2.3,0,0,0-.62-.07H124.5a1.32,1.32,0,0,0-.76.25,1.27,1.27,0,0,0-.5.84l-3.1,15.59-2.62-16.22a1,1,0,0,0-.1-.28.51.51,0,0,0-.26-.17,2.63,2.63,0,0,0-.49-.08l-.79,0-.73,0a2.78,2.78,0,0,0-.49.08,1.13,1.13,0,0,0-.31.16,1.23,1.23,0,0,0-.22.27l-10,17.78a3.07,3.07,0,0,0-.2.52.32.32,0,0,0,.06.31.65.65,0,0,0,.37.14,6.49,6.49,0,0,0,.71,0,6.64,6.64,0,0,0,.67,0,1.58,1.58,0,0,0,.44-.08.65.65,0,0,0,.27-.16.92.92,0,0,0,.17-.24l2.5-4.61h8l.71,4.66a.52.52,0,0,0,.07.22.41.41,0,0,0,.19.14,1.26,1.26,0,0,0,.36.07,4.79,4.79,0,0,0,.56,0c.34,0,.6,0,.8,0a.86.86,0,0,0,.24,0l.18,0a4.67,4.67,0,0,0,.57,0,5,5,0,0,0,.59,0l.4-.09A.56.56,0,0,0,122,75a.43.43,0,0,0,.11-.21l2.22-11.15c.16-.8.31-1.6.46-2.4s.29-1.6.41-2.41h0c.23.73.47,1.46.71,2.18s.48,1.46.73,2.19l3.59,10.2c.12.35.23.63.34.87a2.15,2.15,0,0,0,.35.56,1.12,1.12,0,0,0,.47.3,2,2,0,0,0,.65.09h1a1.26,1.26,0,0,0,.38-.06,1.18,1.18,0,0,0,.37-.19,1.43,1.43,0,0,0,.3-.34,1.29,1.29,0,0,0,.18-.5l3.55-17.68A.33.33,0,0,0,137.8,56.21ZM110.21,68.08l5.18-9.54h0l1.44,9.54Z"/><path class="cls-1" d="M93.52,85.54a15.63,15.63,0,0,0,.13-2,8.2,8.2,0,0,0-.48-2.9,5.5,5.5,0,0,0-1.45-2.17,6.41,6.41,0,0,0-2.41-1.35,12.19,12.19,0,0,0-3.66-.47h-4a1.47,1.47,0,0,0-.8.23,1.15,1.15,0,0,0-.45.81L77,94.75a1.06,1.06,0,0,0,0,.49.65.65,0,0,0,.45.49,1.5,1.5,0,0,0,.37,0H82a14.76,14.76,0,0,0,3.27-.31,11.05,11.05,0,0,0,2.47-.87,9.32,9.32,0,0,0,2-1.33,10.49,10.49,0,0,0,2.64-3.6,12.94,12.94,0,0,0,.75-2A15.33,15.33,0,0,0,93.52,85.54ZM90.77,86a11.8,11.8,0,0,1-.61,2.24,10.45,10.45,0,0,1-1.06,2.08A7.46,7.46,0,0,1,87.52,92a7.33,7.33,0,0,1-2.15,1.18,8.74,8.74,0,0,1-3,.44H79.72l3-14.89h2.66a7.89,7.89,0,0,1,2.68.37,4.66,4.66,0,0,1,1.67,1,4,4,0,0,1,1,1.57,6.53,6.53,0,0,1,.3,2A13.2,13.2,0,0,1,90.77,86Z"/><path class="cls-1" d="M106.29,92a10.67,10.67,0,0,0,1.12-3.17L109.78,77a.36.36,0,0,0,0-.21.29.29,0,0,0-.19-.14l-.38-.09a4.42,4.42,0,0,0-.59,0,4.9,4.9,0,0,0-.61,0l-.4.09a.57.57,0,0,0-.24.14.4.4,0,0,0-.09.21l-2.34,11.68a8.21,8.21,0,0,1-.76,2.21,5.9,5.9,0,0,1-1.24,1.63,5.1,5.1,0,0,1-1.68,1,6.06,6.06,0,0,1-2,.34,5.06,5.06,0,0,1-1.93-.33,2.76,2.76,0,0,1-1.27-1A3.63,3.63,0,0,1,95.42,91a8,8,0,0,1,.14-2.28L97.89,77a.48.48,0,0,0,0-.21.3.3,0,0,0-.18-.14l-.38-.09a4.59,4.59,0,0,0-.6,0,5.08,5.08,0,0,0-.62,0l-.4.09a.55.55,0,0,0-.25.14.4.4,0,0,0-.09.21L93,88.71a8.62,8.62,0,0,0-.13,3.2,4.87,4.87,0,0,0,1,2.3,4.81,4.81,0,0,0,2,1.39,8.64,8.64,0,0,0,3,.46,9.47,9.47,0,0,0,3-.46,7.79,7.79,0,0,0,2.5-1.36A7.91,7.91,0,0,0,106.29,92Z"/><path class="cls-1" d="M138.56,76.86a.35.35,0,0,0-.17-.14,1.25,1.25,0,0,0-.36-.09,4.45,4.45,0,0,0-.57,0,4.62,4.62,0,0,0-.58,0,1.63,1.63,0,0,0-.38.09.52.52,0,0,0-.22.14.42.42,0,0,0-.1.2l-2.09,10.36q-.24,1.22-.48,2.52c-.16.87-.31,1.7-.45,2.51h0l-.66-1.93c-.22-.65-.44-1.29-.67-1.93l-3.62-10.34c-.12-.31-.23-.57-.33-.77a1.91,1.91,0,0,0-.34-.5,1,1,0,0,0-.46-.26,2.28,2.28,0,0,0-.62-.08h-1.17a1.43,1.43,0,0,0-.76.25,1.27,1.27,0,0,0-.5.85l-3.1,15.58L118.28,77.1a.66.66,0,0,0-.1-.27.46.46,0,0,0-.26-.17,2,2,0,0,0-.49-.08c-.2,0-.47,0-.79,0s-.53,0-.73,0a1.91,1.91,0,0,0-.48.08.75.75,0,0,0-.31.16,1.25,1.25,0,0,0-.23.27l-10,17.77a2.58,2.58,0,0,0-.21.53.3.3,0,0,0,.06.3.61.61,0,0,0,.37.14,4.53,4.53,0,0,0,.71,0l.67,0a3,3,0,0,0,.44-.08.69.69,0,0,0,.27-.16,1.13,1.13,0,0,0,.17-.24l2.5-4.62h8l.71,4.66a.48.48,0,0,0,.08.22.33.33,0,0,0,.18.14,1.21,1.21,0,0,0,.36.08l.56,0c.34,0,.61,0,.8,0l.24,0,.19,0a3,3,0,0,0,.56,0,3.34,3.34,0,0,0,.59,0,1.83,1.83,0,0,0,.4-.09.48.48,0,0,0,.23-.14.41.41,0,0,0,.12-.2l2.21-11.16c.16-.79.31-1.59.46-2.39s.29-1.6.42-2.41h0c.22.73.46,1.45.7,2.18s.48,1.45.73,2.18L131,94a9.09,9.09,0,0,0,.34.86,2,2,0,0,0,.35.56,1.11,1.11,0,0,0,.47.31,2.06,2.06,0,0,0,.65.08h1a1.58,1.58,0,0,0,.38,0,1.22,1.22,0,0,0,.37-.2,1.43,1.43,0,0,0,.3-.34,1.18,1.18,0,0,0,.18-.5l3.55-17.67A.32.32,0,0,0,138.56,76.86ZM111,88.73l5.18-9.54h0l1.43,9.54Z"/><path class="cls-1" d="M29.24,104.67a13,13,0,0,1-1.69.74.06.06,0,0,1-.07-.07c0-.08.17-.17.24-.21A17.72,17.72,0,0,0,29.17,104a6,6,0,0,0,.67-.58c.16-.16.31-.32.48-.48l.08-.19c.16,0,.75.81.75,1s-.28.11-.36.1l-1.25.72a3.56,3.56,0,0,1,1.28,2.82,3.39,3.39,0,0,1-.78,2.41,2.47,2.47,0,0,1-.42.37,3.22,3.22,0,0,1-.55.29,1.22,1.22,0,0,0-.26-.8,1.38,1.38,0,0,0-.48-.35s-.08,0-.08-.08.12-.07.16-.07h.34a.74.74,0,0,0,.66-.26,3.21,3.21,0,0,0,.46-1.47,11.28,11.28,0,0,1-2.12,1,1.29,1.29,0,0,1-.26.08s0,0,0-.06.17-.16.21-.19l.59-.42a12.77,12.77,0,0,0,1.6-1.43,2.66,2.66,0,0,0-.1-.38,9.8,9.8,0,0,1-2,1,1.44,1.44,0,0,1-.25.08s-.05,0-.05-.06.16-.15.21-.18a12.78,12.78,0,0,0,1.86-1.74Zm.06-2.94c.34.23.75.47.75.92a.47.47,0,0,1-.47.5c-.48,0-.4-.61-.4-.92a.62.62,0,0,0-.1-.4c-.32.15-.63.29-.95.41.35.25.78.56.78,1.05a.52.52,0,0,1-.51.48c-.26,0-.39-.27-.39-.51s.07-.34.07-.51a2.32,2.32,0,0,0-.07-.46,4.38,4.38,0,0,1-.5.18.05.05,0,0,1-.05,0c0-.06.2-.2.26-.24.36-.28.71-.6,1.06-.9a9.94,9.94,0,0,0,.8-.79c.12-.13.23-.29.37-.42.11.08.82.65.82.84s-.28.14-.37.14C30.05,101.3,29.67,101.51,29.3,101.73Zm2.64-1.14a2.21,2.21,0,0,0-.1-.66.42.42,0,0,1,0-.13c0-.07.09-.09.16-.09a4.13,4.13,0,0,1,1.14.46.14.14,0,0,1,0,.09c0,.12-.25.27-.33.32v1.25h1.11v-1.16a2.12,2.12,0,0,0-.09-.65.32.32,0,0,1,0-.14c0-.07.09-.09.15-.09a4.92,4.92,0,0,1,.91.32c.09,0,.28.1.28.22s-.25.27-.33.32v1.18h.32s.4-.48.5-.48.17.12.21.15.57.48.57.62-.12.11-.19.11H34.83v.56c0,.3,0,.61.05.92a5.57,5.57,0,0,1-1,.22c0-.35.06-.71.06-1.05v-.65H32.83v.67c0,.28.05.57.06.84a7,7,0,0,1-1,.29c0-.34.07-.71.07-1.06v-.74H30.83l-.19.14-.42-.62a5.53,5.53,0,0,0,.7.07h1ZM31.09,109v-3.76c0-.12,0-.24,0-.36s-.09-.42-.09-.46.08-.09.14-.09a5.37,5.37,0,0,1,1.15.51h2.47c.06,0,.32-.35.42-.35a2.27,2.27,0,0,1,.86.59c0,.12-.22.31-.29.37v3.48c0,.35,0,.72.05,1.08a6.11,6.11,0,0,1-1,.31l0-.66H32V110c-.33.12-.65.22-1,.32C31.05,109.87,31.09,109.44,31.09,109Zm1.85-3.78h-.77l-.15.15v1.67h.92Zm0,2.2H32v1.86h.92Zm1.86-2.2h-.75l-.25.24v1.58h1Zm0,2.2h-1v1.86h1Z"/><path class="cls-1" d="M38.52,101.61a3.25,3.25,0,0,0-.06-.45,1.4,1.4,0,0,1-.06-.28s0-.08.09-.08a5.67,5.67,0,0,1,1,.44h.67c0-.07.21-.36.33-.36a3.06,3.06,0,0,1,.64.37c.06,0,.19.13.19.2s-.22.24-.28.29V106c0,.35,0,.71.06,1.06a3.51,3.51,0,0,1-.91.32l0-.7h-.85v.84a4,4,0,0,1-.92.28c0-.38.06-.78.06-1.15Zm1.71,4.7v-4.69h-.72l-.13.14v4.55Zm1.55-1.9-.17.14-.43-.59c.25,0,.52.05.77.05H43.6v-3.59a1.69,1.69,0,0,0,0-.38.81.81,0,0,1-.12-.29s.09-.07.14-.07,1.16.23,1.16.45-.18.24-.25.28V103a10,10,0,0,0,1-1.63,1.11,1.11,0,0,0,.1-.29c0-.07,0-.08.09-.08a2.91,2.91,0,0,1,1,.87c0,.14-.28.13-.38.14-.61.47-1.18,1-1.81,1.42v.6h1.1c.07-.07.38-.47.52-.47a.32.32,0,0,1,.23.13c.09.09.53.5.53.63s-.08.11-.15.11H44.79a9.47,9.47,0,0,0,1.47,3.37,5.7,5.7,0,0,0,.66.81c0,.06.2.19.2.26s-.07.08-.12.08-.25,0-.38,0a1.3,1.3,0,0,0-.77.3,4.36,4.36,0,0,1-.44-.86,10.27,10.27,0,0,1-.81-3.93h-.11V109c0,.4,0,.8,0,1.2a4.32,4.32,0,0,1-1,.28c0-.34.07-.7.07-1v-3.5A12,12,0,0,1,42.11,108a7.15,7.15,0,0,1-1,1c-.06.06-.3.27-.37.27s0,0,0,0a.15.15,0,0,1,0-.09,16.37,16.37,0,0,0,2.48-4.69Zm.95-1.13a.42.42,0,0,1-.4-.38,7.33,7.33,0,0,0-.11-1.05,6.51,6.51,0,0,0-.31-.77.11.11,0,0,1,0,0s0-.06,0-.06a1.4,1.4,0,0,1,.16.1,2.87,2.87,0,0,1,1,1,2.31,2.31,0,0,1,.18.62A.55.55,0,0,1,42.73,103.28Z"/><path class="cls-1" d="M49.53,105.66v-2.78a3.86,3.86,0,0,0-.07-.91.53.53,0,0,1,0-.16c0-.06,0-.08.07-.08a8.52,8.52,0,0,1,1.37.58h1.9v-1.64a3,3,0,0,0-.12-.92.7.7,0,0,1-.08-.2c0-.06.07-.07.11-.07a9.12,9.12,0,0,1,1.42.4c.07,0,.16.09.16.18s-.37.3-.45.34v1.91h2c0-.07.37-.49.5-.49a.51.51,0,0,1,.21.1c.09.07.9.61.9.72S57,103,57,103c0,.82,0,1.63,0,2.44,0,.4,0,.81.06,1.21a9.54,9.54,0,0,1-1.19.34l0-.8H53.8v2.48c0,.49,0,1,.06,1.47a12.3,12.3,0,0,1-1.16.41c0-.53.06-1,.06-1.57v-2.79H50.57v.5a3.11,3.11,0,0,1-1.08.3C49.5,106.55,49.53,106.1,49.53,105.66Zm3.23.11v-3H50.7l-.13.13v2.89Zm3.12,0v-3H53.8v3Z"/><path class="cls-1" d="M67.55,110.1a17.82,17.82,0,0,1-4.31-.2,3.18,3.18,0,0,1-1.81-1.11,3.4,3.4,0,0,1-1.75,1.39l-.06-.1a5.53,5.53,0,0,0,1.82-3.5h-.59c-.07.06-.35.34-.46.3s-.67-.53-.61-.69l.35-.26a8.67,8.67,0,0,0,.85-1.87c-.28,0-.55,0-.83,0a1.46,1.46,0,0,0-.36.13l-.24-.53.47.08H61l.42-.37c.08-.07.57.42.73.56s-.23.29-.33.39a11.48,11.48,0,0,1-.92,1.92h.45l.42-.4a3.11,3.11,0,0,1,.81.72c.08.1-.23.22-.29.34a9.38,9.38,0,0,1-.74,1.71,4.13,4.13,0,0,0,1.87.53,32,32,0,0,0,4.26,0,5.46,5.46,0,0,0,.67-.09c.1,0,.13.09,0,.15A1.28,1.28,0,0,0,67.55,110.1Zm-7.35-9.64a4.37,4.37,0,0,1,1,.35,1.15,1.15,0,0,1,.68,1,.62.62,0,0,1-.59.63c-.42,0-.48-.29-.51-.61a2,2,0,0,0-.64-1.29S60.18,100.46,60.2,100.46Zm2.12,7.8s-.2.18-.27.18a0,0,0,0,1,0,0,.77.77,0,0,1,.14-.25,4.5,4.5,0,0,1,.27-.43c.09-.15.2-.3.27-.45l.29-.6a2.47,2.47,0,0,0,.28-.83.06.06,0,0,1,.06,0,8.22,8.22,0,0,1,.83.39c.08,0,.29.14.29.25s-.25.13-.33.13A15,15,0,0,1,62.32,108.26Zm2.55-6.75a7.42,7.42,0,0,1-2.67,2.34s-.1-.08-.08-.1c.33-.25,2.39-2.81,2.37-4.07a.56.56,0,0,1,.13,0,3.23,3.23,0,0,1,1.21.54c0,.09-.14.17-.22.2a8.78,8.78,0,0,0,2.88,2.87c.07,0,.22.11.22.2s-.25.06-.3.06a1.48,1.48,0,0,0-.92.39,7.12,7.12,0,0,1-1.63-2.07,6.85,6.85,0,0,1-.41-1.31C65.26,100.89,65.07,101.2,64.87,101.51Zm-.22,2.86a5.07,5.07,0,0,0-.05-.56H64l-.21.15-.39-.62a5.38,5.38,0,0,0,.69.07h1.7c.05-.07.3-.4.42-.4s.45.4.5.46.15.17.15.24-.12.1-.19.1H65.31c.09,0,.46.1.46.21s-.17.18-.22.22v.81h1.16s.41-.5.52-.5.56.47.6.51.15.16.15.25-.09.13-.17.13H65.55v2.89c0,.39-.42.5-.72.56a2,2,0,0,1-.34,0l-.31,0a1.21,1.21,0,0,0-.16-.55,1.55,1.55,0,0,0-.59-.46.05.05,0,0,1,0-.06s0,0,.06,0c.27,0,.58.12.87.12s.32-.11.32-.34v-2.15H63l-.19.15-.41-.61c.22,0,.47.07.7.07h1.52Zm2.6,4c-.42,0-.48-.36-.56-.67s-.09-.4-.15-.58a1.6,1.6,0,0,0-.48-.7s-.28-.22-.28-.27.1,0,.11,0a2.07,2.07,0,0,1,.74.28,4.79,4.79,0,0,1,.53.34,1.3,1.3,0,0,1,.63,1A.56.56,0,0,1,67.25,108.4Z"/><path class="cls-1" d="M71.3,108c.12-.14.26-.29.4-.43a.45.45,0,0,1,.32-.16.71.71,0,0,1,.28.06l1-.62a12.79,12.79,0,0,0,1.23-1,17.73,17.73,0,0,0,2.61-2.73H71.68l-.22.17-.53-.67a8.48,8.48,0,0,0,.88.06h5.44a6.05,6.05,0,0,1,.57-.48c.17,0,1.1.83,1.1,1s-.36.2-.51.26a7.59,7.59,0,0,0-.79.73c-.47.44-1,.87-1.44,1.28a16.46,16.46,0,0,1-3.6,2.18,3.32,3.32,0,0,0,.58.67,2.72,2.72,0,0,0,1.74.62c.52,0,1.06.07,1.59.07s.93,0,1.4,0L79,109l.25,0c.06,0,.08,0,.08.07s-.22.15-.25.17a1.59,1.59,0,0,0-.6.94c-.92,0-1.84,0-2.76,0a5.88,5.88,0,0,1-1.67-.26c-1-.39-1.15-.81-1.65-1.69,0-.08-.14-.24-.25-.24s-.57,1.5-.65,1.74l-1-.8C70.78,108.58,71.05,108.32,71.3,108Zm2.25-8.36h.08a4,4,0,0,1,1.16.37,1.63,1.63,0,0,1,.77.62,1.34,1.34,0,0,1,.17.58.58.58,0,0,1-.56.63c-.5,0-.62-.5-.76-.88a2.36,2.36,0,0,0-.21-.52c-.23-.41-.4-.41-.68-.7,0,0,0,0,0-.06S73.52,99.67,73.55,99.67Z"/><path class="cls-1" d="M88.42,101.63c.08-.08.33-.41.48-.41a.49.49,0,0,1,.28.15l.67.56a.33.33,0,0,1,.14.24.2.2,0,0,1-.22.22c-.12,0-.24,0-.35,0a2,2,0,0,0-1.25.62.16.16,0,0,1-.11.07A.06.06,0,0,1,88,103a7.69,7.69,0,0,1,.42-.95H82.93c0,.11,0,.22,0,.34,0,.34-.38.78-.74.78s-.67-.14-.67-.49.67-.58.91-1a4.3,4.3,0,0,0,.18-.58c.18,0,.28.46.29.54ZM84,106.75a14.16,14.16,0,0,1-1.74.77,3.53,3.53,0,0,1-.43.14s-.05,0-.05,0,0-.08.07-.12A17.93,17.93,0,0,0,84,106c.42-.35.84-.71,1.22-1.09l-.08-.14a23.07,23.07,0,0,1-2.41,1,3.08,3.08,0,0,1-.49.16s-.1,0-.1-.07.41-.27.49-.32a10,10,0,0,0,2.31-1.78H83.15l-.2.2-.41-.66c.21,0,.45.06.65.06h4.87c.06-.08.38-.43.51-.43s.54.5.61.57a.24.24,0,0,1,.1.19s0,.07-.1.07h-3c.11.07.29.16.29.32s-.21.1-.32.1c-.27.16-.53.33-.81.48a3.19,3.19,0,0,1,1,1.11A7.69,7.69,0,0,0,88,104.48s.09-.13.12-.13a3.7,3.7,0,0,1,1,.83.31.31,0,0,1,0,.08c0,.07,0,.08-.1.08a1.35,1.35,0,0,1-.28,0c-.41.13-.82.25-1.24.34a4.89,4.89,0,0,0,.21.68,6.41,6.41,0,0,0,.71,1.28,4.47,4.47,0,0,0,1.29,1.31c.07,0,.37.2.37.28s-.31.1-.39.1a1.74,1.74,0,0,0-1,.29,4.68,4.68,0,0,1-1-1.49,11,11,0,0,1-.49-2.35,6.7,6.7,0,0,1-.74.19,5.74,5.74,0,0,1,.31,1.93,3.51,3.51,0,0,1-.59,2,1.57,1.57,0,0,1-1.09.54,1.86,1.86,0,0,0-.17-.73c-.16-.29-.74-.46-.74-.56s0-.08.09-.08c.32,0,.63.1,1,.1a.45.45,0,0,0,.23-.08c.25-.17.4-1,.41-1.25v-.49c-.27.21-.56.4-.84.59a15.62,15.62,0,0,1-2.78,1.1,5.09,5.09,0,0,1-.53.16s-.05,0-.05-.08.4-.26.46-.29c.46-.25.92-.51,1.35-.8a7.86,7.86,0,0,0,.89-.62c.45-.39.91-.8,1.37-1.17a1.46,1.46,0,0,0-.11-.41A12,12,0,0,1,84,106.75Zm1.9-5.25a.4.4,0,0,1-.34-.15c-.23-.29,0-1-.51-1.47,0,0-.12-.13-.12-.21s0,0,.09,0a1.5,1.5,0,0,1,.42.09c.49.17,1.11.52,1.11,1.11A.62.62,0,0,1,85.86,101.5Z"/><path class="cls-1" d="M92.65,106.51c0-1.5,0-3,0-4.49a.93.93,0,0,0,0-.33.48.48,0,0,1,0-.17c0-.07,0-.09.11-.09a2.58,2.58,0,0,1,.93.38H94c.07-.09.22-.33.36-.33a.51.51,0,0,1,.18.09c.08.05.58.32.58.45s-.16.21-.25.27v4.08c0,.32,0,.66,0,1a3.47,3.47,0,0,1-.85.25l0-.53h-.67v.59a3.75,3.75,0,0,1-.81.16C92.6,107.39,92.65,106.94,92.65,106.51Zm2.83-3.68-.22.18L95,102.4a4.15,4.15,0,0,0,.7,0c0-.53,0-1.06,0-1.61a4.43,4.43,0,0,0,0-.63l0-.22c0-.09-.07-.17-.07-.26s.06,0,.08,0c.19,0,1.14.23,1.16.41s-.17.24-.25.29c0,.69,0,1.37-.06,2.06h.37c0-.05.23-.34.3-.34a2.17,2.17,0,0,1,.83.56c0,.1-.18.22-.25.27,0,.84,0,1.68,0,2.52a9.93,9.93,0,0,1-.48,3.68A1.68,1.68,0,0,1,96,110.26a1,1,0,0,0-.22-.59,1,1,0,0,0-.5-.36s-.06,0-.06-.09.09,0,.11,0h.42a2.17,2.17,0,0,0,.36,0c.34-.07.56-1,.62-1.34a16.15,16.15,0,0,0,.15-2.3c0-.39,0-.79,0-1.19s0-1,0-1.5h-.47a15.84,15.84,0,0,1-.62,4.91,5.06,5.06,0,0,1-.83,1.32,4.84,4.84,0,0,1-1.29,1.1,1.81,1.81,0,0,1-.37.18.05.05,0,0,1,0,0s0-.06.06-.09a6,6,0,0,0,1.49-1.9,7.1,7.1,0,0,0,.57-1.74,24.43,24.43,0,0,0,.24-3.73Zm-1.42,3.84v-4.46h-.57l-.1.13v4.33Zm4,2v-6.24a4.7,4.7,0,0,0,0-.53c0-.11-.1-.3-.1-.37s0,0,.06,0a3.19,3.19,0,0,1,1,.44h.4c.05-.07.24-.37.35-.37s.8.45.8.59-.22.23-.28.27v6c0,.39,0,.8,0,1.21a3.43,3.43,0,0,1-.85.22l0-.72h-.65v.54a6.18,6.18,0,0,1-.83.27C98,109.5,98.08,109.07,98.08,108.66Zm1.41,0v-6.38H99l-.12.11v6.27Z"/><path class="cls-1" d="M104.17,106.82v.7a3.62,3.62,0,0,1-.85.2c0-.43.05-.86.05-1.29,0-1.53,0-3.08,0-4.61a3.15,3.15,0,0,0-.12-.52s0-.08,0-.08a.7.7,0,0,1,.14,0,6.18,6.18,0,0,1,.91.41h.34s.26-.37.39-.37a.78.78,0,0,1,.29.14c.07.06.5.32.5.46s-.19.23-.26.28v4c0,.34,0,.53,0,.86a9.43,9.43,0,0,1-.9.29l0-.47Zm.59-.4v-4.35h-.48l-.12.13v4.22Zm3.75-.1a6,6,0,0,1-.67.49,4.57,4.57,0,0,1-2.3,3.4s0,0-.09-.09a6.57,6.57,0,0,0,1.49-2.77s-1,.85-1,.89l-.15.23-.74-1a2.76,2.76,0,0,0,.61-.11c.19-.07,1.23-.47,1.42-.57.07-.57.09-1.09.12-1.84h-.8l-.22.16-.43-.63a5.3,5.3,0,0,0,.66.07h.79v-1.74h-.8l-.24.16-.41-.62c.22,0,.46.07.66.07h.79v-1.1a10.84,10.84,0,0,0-.06-1.13c0-.13-.15-.31-.15-.39s0-.05.07-.05c.23,0,1.26.26,1.26.46s-.18.21-.25.25c0,1.36,0,2.91,0,4.29a11.47,11.47,0,0,1-.13,1.69,3.6,3.6,0,0,0,.52-.3s.18,0,.19.05A.48.48,0,0,1,108.51,106.32Zm.29,2.35v-8.08a2,2,0,0,0-.1-.66.34.34,0,0,1,0-.14c0-.05,0-.06.08-.06.2,0,1.24.34,1.24.53s-.25.28-.32.32v1.85h.54c0-.05.36-.46.5-.46s.54.42.6.47.17.16.17.26-.11.13-.18.13h-1.63v1.71h.54c.06-.08.29-.4.43-.4a.24.24,0,0,1,.16.06l.48.46a.29.29,0,0,1,.12.18.14.14,0,0,1-.15.09h-1.58V107h.61c0-.07.38-.47.52-.47s.18.09.23.14.53.46.53.61-.11.12-.18.12h-1.71v1.36c0,.47,0,.94.07,1.41-.33.09-.67.18-1,.24C108.75,109.86,108.8,109.19,108.8,108.67Z"/><path class="cls-1" d="M122.22,101.56h-6.66l-.08.08c0,1,0,2.08,0,3.12,0,1.69.08,3.26-1,4.71-.06.09-.5.7-.59.7s0,0,0-.06a2.24,2.24,0,0,1,.12-.29,6.9,6.9,0,0,0,.42-1.26,11.53,11.53,0,0,0,.26-2.62c0-.9,0-1.81,0-2.72,0-.63,0-1.25,0-1.87a1.67,1.67,0,0,0,0-.32,2,2,0,0,1-.07-.31s0-.08,0-.08a6.45,6.45,0,0,1,1.1.52h5.35c.08-.1.34-.5.5-.5a2.38,2.38,0,0,1,.82.82C122.38,101.56,122.28,101.56,122.22,101.56Zm-5.13,6.5h-.55v.62a4.21,4.21,0,0,1,.6-.11s.06,0,.06.05c-.34.23-.66.46-1,.65a3.47,3.47,0,0,0-.44.31l-.43-.68.68-.12v-.72h-.09l-.17.13-.24-.55.49,0V107h-.08l-.15.11-.25-.54c.14,0,.29,0,.44,0h.49s.22-.27.31-.27a1,1,0,0,1,.43.51.13.13,0,0,1-.14.13h-.52v.73h.1s.14-.2.22-.2.35.34.35.46A.12.12,0,0,1,117.09,108.06Zm1.46-5.35H118v6.2c0,.43,0,.89.08,1.32-.29.13-.58.25-.89.36l.07-1c0-.19,0-.29,0-.49V105.9H116l-.14.16-.37-.59.49,0v-2.81l-.19.12-.25-.56a4.36,4.36,0,0,0,.52,0h1.59s.3-.36.39-.36.44.34.51.41.14.12.14.21A.13.13,0,0,1,118.55,102.71Zm-1.24,0h-.61l-.06,0v.67h.67Zm0,1.09h-.67v.63h.67Zm0,1h-.67v.71h.67Zm1.32-3.68c-.65,0-.43-.74-.67-1.13l-.27-.38c0-.05,0-.06.08-.06a3.94,3.94,0,0,1,.65.18,1,1,0,0,1,.72.84A.52.52,0,0,1,118.63,101.13Zm-.19,8.23a.35.35,0,0,1-.37-.34c0-.32.39-.55.52-.88a2.19,2.19,0,0,0,.11-.4s0-.07.06-.07.22.85.22,1A.6.6,0,0,1,118.44,109.36Zm3.76-6.08h-1.56l-.07.75h.64s.21-.29.29-.29.71.41.71.52-.23.22-.29.25v.92c0,.21,0,.41,0,.62a4.73,4.73,0,0,1-.74.19l0-.34h-2.06v.21a2.6,2.6,0,0,1-.67.15c0-.27,0-.56,0-.83v-.74a3.14,3.14,0,0,0-.08-.67.38.38,0,0,1,0-.16.06.06,0,0,1,.06-.06,5.69,5.69,0,0,1,.74.23h.51l.06-.75h-.94l-.18.18-.42-.62a4.07,4.07,0,0,0,.6.06h.94c0-.1,0-.22,0-.32a3.85,3.85,0,0,0-.08-.58.79.79,0,0,1,0-.13c0-.06,0-.08.1-.08s.5.1.63.12.44.09.44.22-.14.21-.23.27l0,.5h.63c.06-.07.31-.43.44-.43s.18.1.22.15.44.39.44.53S122.29,103.28,122.2,103.28Zm.06,3.66H119l-.2.2-.41-.62c.2,0,.43,0,.64,0h2.47c0-.06.26-.39.39-.39s.59.53.59.63S122.34,106.94,122.26,106.94Zm-.73,2.81c-.24.46-1,.42-1.49.42s-.81,0-.81-.66c0-.34,0-.68,0-1a2.63,2.63,0,0,0,0-.48,2.1,2.1,0,0,1-.06-.24.08.08,0,0,1,.09-.09c.11,0,.85.27.85.47s-.12.12-.18.15v.81c0,.18,0,.31.25.31h.24c.31,0,.41,0,.5-.38s.1-.43.16-.65c0,0,0-.06.07-.06s.07.28.08.34c0,.37.07.56.45.69A2.64,2.64,0,0,1,121.53,109.75Zm-2-5.33h-.34v1.11h.34Zm.92,3.92c-.5,0-.22-.69-.54-1.07,0,0-.14-.13-.14-.18s0-.06.07-.06a1.39,1.39,0,0,1,.46.22c.25.14.54.38.54.69A.41.41,0,0,1,120.48,108.34Zm-.11-3.92h-.28l-.1.07v1h.38Zm.91,0H121l-.13.15v1h.45Zm.79,4.78a.35.35,0,0,1-.21-.06.43.43,0,0,1-.16-.32,2,2,0,0,0-.34-1s-.12-.1-.12-.15,0-.06.07-.06c.3,0,.91.56,1.06.81a.82.82,0,0,1,.09.35A.39.39,0,0,1,122.07,109.2Z"/><path class="cls-1" d="M5.94,122.48a5.39,5.39,0,0,1-2.1.42,3.63,3.63,0,0,1-2.77-1.14,4.2,4.2,0,0,1-1.07-3,4.5,4.5,0,0,1,1.16-3.23,3.91,3.91,0,0,1,3-1.22,5.33,5.33,0,0,1,1.83.31v.6a4.44,4.44,0,0,0-1.84-.39,3.33,3.33,0,0,0-2.54,1.06,4,4,0,0,0-1,2.81,3.75,3.75,0,0,0,.93,2.68,3.14,3.14,0,0,0,2.37,1,4.57,4.57,0,0,0,2.05-.45Z"/><path class="cls-1" d="M10.66,122.76v-1.19h0a2.29,2.29,0,0,1-.82,1,2.12,2.12,0,0,1-1.2.36,1.89,1.89,0,0,1-1.34-.47,1.64,1.64,0,0,1-.49-1.2c0-1,.69-1.66,2.06-1.87l1.82-.27c0-1.27-.48-1.91-1.44-1.91a2.9,2.9,0,0,0-1.9.79v-.64a2.74,2.74,0,0,1,.89-.45,3.55,3.55,0,0,1,1.06-.19,1.77,1.77,0,0,1,1.42.57,2.44,2.44,0,0,1,.49,1.65v3.85Zm-1.63-3a2.84,2.84,0,0,0-1.31.43,1.17,1.17,0,0,0-.38,1,1.15,1.15,0,0,0,.35.86,1.34,1.34,0,0,0,1,.34,1.83,1.83,0,0,0,1.42-.63,2.33,2.33,0,0,0,.57-1.63v-.58Z"/><path class="cls-1" d="M15,114.55a1.06,1.06,0,0,0-.65-.16c-.73,0-1.09.49-1.09,1.46v1h1.57v.49H13.27v5.43h-.53v-5.43H11.68v-.49h1.06v-1a2,2,0,0,1,.47-1.42,1.53,1.53,0,0,1,1.17-.49A1.65,1.65,0,0,1,15,114Z"/><path class="cls-1" d="M16,117.06h-.42l.72-2.59h.6Z"/><path class="cls-1" d="M16.58,119.82a3,3,0,0,0,.56,1.91,1.92,1.92,0,0,0,1.55.68,3.13,3.13,0,0,0,1.94-.73v.57a3.49,3.49,0,0,1-2.05.65,2.32,2.32,0,0,1-1.85-.82,3.45,3.45,0,0,1-.7-2.31,3.31,3.31,0,0,1,.73-2.19,2.39,2.39,0,0,1,1.92-.89,2,2,0,0,1,1.69.78,3.37,3.37,0,0,1,.59,2.11v.24Zm3.83-.48a2.59,2.59,0,0,0-.5-1.59,1.51,1.51,0,0,0-1.25-.57,1.85,1.85,0,0,0-1.38.56,2.66,2.66,0,0,0-.68,1.6Z"/><path class="cls-1" d="M28.11,122.76v-1.19h0a2.29,2.29,0,0,1-.82,1,2.12,2.12,0,0,1-1.2.36,1.87,1.87,0,0,1-1.34-.47,1.6,1.6,0,0,1-.49-1.2c0-1,.68-1.66,2.05-1.87l1.82-.27c0-1.27-.48-1.91-1.43-1.91a2.9,2.9,0,0,0-1.9.79v-.64a2.64,2.64,0,0,1,.89-.45,3.55,3.55,0,0,1,1.06-.19,1.77,1.77,0,0,1,1.41.57,2.4,2.4,0,0,1,.5,1.65v3.85Zm-1.62-3a2.8,2.8,0,0,0-1.31.43,1.17,1.17,0,0,0-.38,1,1.15,1.15,0,0,0,.35.86,1.33,1.33,0,0,0,1,.34,1.85,1.85,0,0,0,1.42-.63,2.37,2.37,0,0,0,.56-1.63v-.58Z"/><path class="cls-1" d="M33.9,122.76v-3.45c0-1.42-.51-2.13-1.54-2.13a1.76,1.76,0,0,0-1.4.63,2.23,2.23,0,0,0-.55,1.55v3.4h-.53v-5.92h.53v1.07h0a2.15,2.15,0,0,1,2-1.22,1.79,1.79,0,0,1,1.47.64,2.89,2.89,0,0,1,.51,1.83v3.6Z"/><path class="cls-1" d="M39.86,122.76v-1.08h0a2.11,2.11,0,0,1-.86.89,2.45,2.45,0,0,1-1.27.33,2.24,2.24,0,0,1-1.79-.8,3.24,3.24,0,0,1-.69-2.2,3.48,3.48,0,0,1,.76-2.32,2.45,2.45,0,0,1,2-.89,2,2,0,0,1,1.89,1.1h0V114h.54v8.76Zm0-3.6a2,2,0,0,0-.52-1.4,1.79,1.79,0,0,0-1.4-.58,1.92,1.92,0,0,0-1.54.72,3.49,3.49,0,0,0-.06,3.85,1.73,1.73,0,0,0,1.4.66,2,2,0,0,0,1.57-.62,2.23,2.23,0,0,0,.55-1.53Z"/><path class="cls-1" d="M43.78,122.48v-.66a3.32,3.32,0,0,0,1.81.57,2.3,2.3,0,0,0,1.47-.4,1.37,1.37,0,0,0,.5-1.12,1.45,1.45,0,0,0-.34-1,6.41,6.41,0,0,0-1.46-1,5.12,5.12,0,0,1-1.59-1.23,2,2,0,0,1,.34-2.63,2.62,2.62,0,0,1,1.82-.62,4.79,4.79,0,0,1,1.48.25v.6a3.85,3.85,0,0,0-1.56-.32,2,2,0,0,0-1.33.42,1.39,1.39,0,0,0-.5,1.09,1.48,1.48,0,0,0,.34,1,6.72,6.72,0,0,0,1.46,1,5.25,5.25,0,0,1,1.55,1.17,1.89,1.89,0,0,1,.38,1.18,2,2,0,0,1-.66,1.55,2.68,2.68,0,0,1-1.87.6,4.2,4.2,0,0,1-1-.13A3.49,3.49,0,0,1,43.78,122.48Z"/><path class="cls-1" d="M53.28,122.77v-3.55a2.54,2.54,0,0,0-.38-1.54,1.44,1.44,0,0,0-1.19-.49,1.8,1.8,0,0,0-1.34.6,2.32,2.32,0,0,0-.58,1.71v3.27h-.53V114h.53v3.91h0a2.2,2.2,0,0,1,2-1.21,1.75,1.75,0,0,1,1.46.62,2.76,2.76,0,0,1,.5,1.77v3.67Z"/><path class="cls-1" d="M55.17,119.83a2.9,2.9,0,0,0,.57,1.91,1.88,1.88,0,0,0,1.54.69,3.13,3.13,0,0,0,1.94-.74v.57a3.4,3.4,0,0,1-2,.65,2.32,2.32,0,0,1-1.86-.82,3.43,3.43,0,0,1-.7-2.31,3.26,3.26,0,0,1,.74-2.18,2.35,2.35,0,0,1,1.91-.89,2,2,0,0,1,1.69.77,3.4,3.4,0,0,1,.6,2.12v.23Zm3.83-.48a2.71,2.71,0,0,0-.49-1.59,1.54,1.54,0,0,0-1.26-.57,1.85,1.85,0,0,0-1.38.56,2.65,2.65,0,0,0-.67,1.6Z"/><path class="cls-1" d="M60.47,122.77V114H61v8.76Z"/><path class="cls-1" d="M64.7,122.69a1.88,1.88,0,0,1-.78.2c-.88,0-1.31-.53-1.31-1.58v-4H61.54v-.49h1.07v-1.53a2,2,0,0,1,.26-.09l.27-.1v1.72H64.7v.49H63.14v3.9a1.57,1.57,0,0,0,.19.89.76.76,0,0,0,.66.28,1.56,1.56,0,0,0,.71-.22Z"/><path class="cls-1" d="M65.45,119.83a3,3,0,0,0,.56,1.91,1.9,1.9,0,0,0,1.55.69,3.15,3.15,0,0,0,1.94-.74v.57a3.43,3.43,0,0,1-2,.65,2.32,2.32,0,0,1-1.85-.82,3.43,3.43,0,0,1-.71-2.31,3.31,3.31,0,0,1,.74-2.18,2.35,2.35,0,0,1,1.92-.89,2,2,0,0,1,1.69.77,3.4,3.4,0,0,1,.59,2.12v.23Zm3.83-.48a2.64,2.64,0,0,0-.5-1.59,1.51,1.51,0,0,0-1.25-.57,1.85,1.85,0,0,0-1.38.56,2.66,2.66,0,0,0-.68,1.6Z"/><path class="cls-1" d="M73.54,117.41a1,1,0,0,0-.62-.19,1.39,1.39,0,0,0-1.18.72,3.77,3.77,0,0,0-.47,2v2.78h-.52v-5.92h.52v1.31h0a2.06,2.06,0,0,1,.64-1,1.51,1.51,0,0,1,1-.38,1.55,1.55,0,0,1,.59.11Z"/><path class="cls-1" d="M79.39,114.57a1.05,1.05,0,0,0-.65-.17c-.72,0-1.09.49-1.09,1.47v1h1.57v.49H77.65v5.43h-.53v-5.43H76.06v-.49h1.06v-1a2,2,0,0,1,.47-1.43,1.6,1.6,0,0,1,1.18-.48,1.41,1.41,0,0,1,.62.11Z"/><path class="cls-1" d="M81.89,122.91a2.61,2.61,0,0,1-2-.85,3.23,3.23,0,0,1-.75-2.21,3.19,3.19,0,0,1,.79-2.31,2.72,2.72,0,0,1,2.08-.83,2.54,2.54,0,0,1,2,.82,3.35,3.35,0,0,1,.73,2.29,3.28,3.28,0,0,1-.75,2.24A2.58,2.58,0,0,1,81.89,122.91Zm0-5.72a2.11,2.11,0,0,0-1.67.71,2.83,2.83,0,0,0-.62,2,2.77,2.77,0,0,0,.6,1.86,2.09,2.09,0,0,0,1.66.71,2,2,0,0,0,1.65-.7,3.5,3.5,0,0,0,0-3.86A2,2,0,0,0,81.94,117.19Z"/><path class="cls-1" d="M88.4,117.41a1,1,0,0,0-.62-.19,1.39,1.39,0,0,0-1.18.72,3.77,3.77,0,0,0-.47,2v2.78h-.52v-5.92h.52v1.31h0a2.12,2.12,0,0,1,.63-1,1.59,1.59,0,0,1,1.61-.27Z"/><path class="cls-1" d="M95.68,122.77v-3.55a2.48,2.48,0,0,0-.38-1.54,1.43,1.43,0,0,0-1.19-.49,1.8,1.8,0,0,0-1.34.6,2.32,2.32,0,0,0-.58,1.71v3.27h-.53V114h.53v3.91h0a2.2,2.2,0,0,1,2-1.21,1.74,1.74,0,0,1,1.46.62,2.71,2.71,0,0,1,.5,1.77v3.67Z"/><path class="cls-1" d="M99.82,122.91a2.61,2.61,0,0,1-2-.85,3.23,3.23,0,0,1-.75-2.21,3.19,3.19,0,0,1,.79-2.31,2.72,2.72,0,0,1,2.08-.83,2.54,2.54,0,0,1,2,.82,3.35,3.35,0,0,1,.73,2.29,3.28,3.28,0,0,1-.75,2.24A2.58,2.58,0,0,1,99.82,122.91Zm.05-5.72a2.11,2.11,0,0,0-1.67.71,2.83,2.83,0,0,0-.62,2,2.77,2.77,0,0,0,.6,1.86,2.09,2.09,0,0,0,1.66.71,2,2,0,0,0,1.65-.7,3.5,3.5,0,0,0,0-3.86A2,2,0,0,0,99.87,117.19Z"/><path class="cls-1" d="M111,122.77v-3.56a2.67,2.67,0,0,0-.35-1.57,1.3,1.3,0,0,0-1.1-.45,1.52,1.52,0,0,0-1.21.6,2.26,2.26,0,0,0-.51,1.51v3.47h-.53v-3.6c0-1.32-.5-2-1.51-2a1.49,1.49,0,0,0-1.2.61,2.42,2.42,0,0,0-.48,1.56v3.41h-.53v-5.92h.53v1h0a1.94,1.94,0,0,1,1.8-1.13,1.67,1.67,0,0,1,1.11.37,1.75,1.75,0,0,1,.62,1,2.29,2.29,0,0,1,.8-1,2,2,0,0,1,1.12-.35c1.29,0,1.94.8,1.94,2.4v3.66Z"/><path class="cls-1" d="M112.85,119.83a2.9,2.9,0,0,0,.56,1.91,1.88,1.88,0,0,0,1.54.69,3.15,3.15,0,0,0,2-.74v.57a3.45,3.45,0,0,1-2.05.65,2.3,2.3,0,0,1-1.85-.82,3.43,3.43,0,0,1-.71-2.31,3.31,3.31,0,0,1,.74-2.18,2.35,2.35,0,0,1,1.91-.89,2,2,0,0,1,1.7.77,3.46,3.46,0,0,1,.59,2.12v.23Zm3.82-.48a2.64,2.64,0,0,0-.49-1.59,1.51,1.51,0,0,0-1.26-.57,1.88,1.88,0,0,0-1.38.56,2.65,2.65,0,0,0-.67,1.6Z"/><path class="cls-1" d="M118.15,122.77V114h.53v8.76Z"/><path class="cls-1" d="M120.16,119.83a2.9,2.9,0,0,0,.56,1.91,1.88,1.88,0,0,0,1.54.69,3.17,3.17,0,0,0,1.95-.74v.57a3.45,3.45,0,0,1-2,.65,2.3,2.3,0,0,1-1.85-.82,3.38,3.38,0,0,1-.71-2.31,3.31,3.31,0,0,1,.74-2.18,2.35,2.35,0,0,1,1.91-.89,2,2,0,0,1,1.7.77,3.46,3.46,0,0,1,.59,2.12v.23Zm3.82-.48a2.64,2.64,0,0,0-.49-1.59,1.51,1.51,0,0,0-1.26-.57,1.88,1.88,0,0,0-1.38.56,2.65,2.65,0,0,0-.67,1.6Z"/><path class="cls-1" d="M125.15,122.51v-.64a2.56,2.56,0,0,0,1.47.56c.92,0,1.39-.38,1.39-1.14a.85.85,0,0,0-.31-.67,3.31,3.31,0,0,0-1-.57,3.29,3.29,0,0,1-1.19-.77,1.4,1.4,0,0,1-.35-1,1.46,1.46,0,0,1,.55-1.17,2.16,2.16,0,0,1,1.37-.44,2.55,2.55,0,0,1,1.3.31v.6a2.51,2.51,0,0,0-1.36-.43,1.42,1.42,0,0,0-.94.31,1,1,0,0,0-.36.79,1,1,0,0,0,.22.68,2.93,2.93,0,0,0,1,.61,4.07,4.07,0,0,1,1.27.77,1.28,1.28,0,0,1,.34.94,1.46,1.46,0,0,1-.52,1.16,2.13,2.13,0,0,1-1.46.46A2.41,2.41,0,0,1,125.15,122.51Z"/><path class="cls-1" d="M129.2,122.51v-.64a2.57,2.57,0,0,0,1.46.56c.93,0,1.4-.38,1.4-1.14a.88.88,0,0,0-.31-.67,3.31,3.31,0,0,0-1-.57,3.29,3.29,0,0,1-1.19-.77,1.4,1.4,0,0,1-.35-1,1.43,1.43,0,0,1,.55-1.17,2.14,2.14,0,0,1,1.37-.44,2.55,2.55,0,0,1,1.3.31v.6a2.51,2.51,0,0,0-1.36-.43,1.4,1.4,0,0,0-.94.31,1,1,0,0,0-.36.79,1,1,0,0,0,.22.68,2.93,2.93,0,0,0,1,.61,4.2,4.2,0,0,1,1.27.77,1.28,1.28,0,0,1,.34.94,1.44,1.44,0,0,1-.53,1.16,2.1,2.1,0,0,1-1.45.46A2.41,2.41,0,0,1,129.2,122.51Z"/><path class="cls-1" d="M140.08,122.51a3,3,0,0,1-1.58.4,2.45,2.45,0,0,1-1.94-.83,3.14,3.14,0,0,1-.74-2.17,3.26,3.26,0,0,1,.83-2.3,2.78,2.78,0,0,1,2.14-.9,3.15,3.15,0,0,1,1.31.28v.59a2.7,2.7,0,0,0-1.39-.39,2.13,2.13,0,0,0-1.69.75,2.88,2.88,0,0,0-.65,1.94,2.74,2.74,0,0,0,.6,1.85,2,2,0,0,0,1.56.7,2.63,2.63,0,0,0,1.55-.47Z"/><path class="cls-1" d="M144.49,122.77v-1.18h0a2.35,2.35,0,0,1-.83,1,2.12,2.12,0,0,1-1.2.36,1.82,1.82,0,0,1-1.33-.47,1.59,1.59,0,0,1-.5-1.2c0-1,.69-1.65,2.06-1.87l1.82-.27c0-1.27-.48-1.91-1.44-1.91a2.93,2.93,0,0,0-1.89.79v-.64a2.73,2.73,0,0,1,.89-.45,3.47,3.47,0,0,1,1.06-.18,1.79,1.79,0,0,1,1.41.56,2.45,2.45,0,0,1,.5,1.65v3.85Zm-1.63-3a2.88,2.88,0,0,0-1.31.43,1.16,1.16,0,0,0-.37,1,1.15,1.15,0,0,0,.35.87,1.36,1.36,0,0,0,1,.34,1.83,1.83,0,0,0,1.42-.63,2.36,2.36,0,0,0,.57-1.64v-.57Z"/><path class="cls-1" d="M148.6,122.69a1.88,1.88,0,0,1-.79.2c-.87,0-1.31-.53-1.31-1.58v-4h-1.06v-.49h1.06v-1.53a1.71,1.71,0,0,1,.27-.09l.26-.1v1.72h1.57v.49H147v3.9a1.56,1.56,0,0,0,.2.89.73.73,0,0,0,.65.28,1.56,1.56,0,0,0,.72-.22Z"/><path class="cls-1" d="M148.91,122.51v-.64a2.35,2.35,0,0,0,.73.41,2.31,2.31,0,0,0,.74.15c.93,0,1.39-.38,1.39-1.14a.87.87,0,0,0-.3-.67,3.52,3.52,0,0,0-1-.57,3.39,3.39,0,0,1-1.19-.77,1.39,1.39,0,0,1-.34-1,1.43,1.43,0,0,1,.55-1.17,2.11,2.11,0,0,1,1.36-.44,2.59,2.59,0,0,1,1.31.31v.6a2.54,2.54,0,0,0-1.37-.43,1.42,1.42,0,0,0-.94.31,1,1,0,0,0-.36.79,1,1,0,0,0,.23.68,3,3,0,0,0,1,.61,4.07,4.07,0,0,1,1.27.77,1.28,1.28,0,0,1,.35.94,1.47,1.47,0,0,1-.53,1.16,2.13,2.13,0,0,1-1.46.46A2.43,2.43,0,0,1,148.91,122.51Z"/><path class="cls-1" d="M130,20.92c-1-.64-2,.14-2.52,1.08-1.31,2.29-2.89,3.91-5.87,3.74-3.19-.18-5.57-1.8-7.68-3.89a62.13,62.13,0,0,0-11.47-9.54C99.93,10.78,97.25,9.25,94.39,9,83.3,8.17,72.28,6.9,61,7.82c-7.92.65-16.7.52-22.8-6.73-.43-.51-.93-1.27-1.62-1a1.73,1.73,0,0,0-1,1.94c.46,2.33-.94,3.51-2.56,4.65-3,2.09-2.23,5.48-2.69,8.36-.24,1.54,4,3.47,5.93,2.94,4.95-1.4,6.64-.72,9.39,3.7a10.74,10.74,0,0,0,3.92,4.18c3.18,1.63.08,2.24-2.62,2.41-4.44.28-3.06.13-5.56.91-.61.19-2.41.83-2.84,1.86a3.34,3.34,0,0,0-.21.68,24.32,24.32,0,0,0-4.24-1.14c-4.27-.72-7.59,1.1-8.65,4.46-.94,3,.14,6.11,3.25,8.71A24,24,0,0,0,41,49.38a7.48,7.48,0,0,0,5.83-1.3c1.07-.83,1.12-1.69-.16-2.45C42.82,43.36,38.93,41.2,35,39.06c-1.61-.87-3.31-1.56-5-2.37a12.83,12.83,0,0,1-1.46-1l.09-.46a8.62,8.62,0,0,1,2.34.22c3.2,1.21,6.42,2.39,9.51,3.87a71,71,0,0,1,7,4.18,17.64,17.64,0,0,1,2,1.72,13.35,13.35,0,0,0,.38-1.78c.21-2.78-1.27-5-3.38-6.87a27.25,27.25,0,0,0-3.85-2.84c.81-.46,1.67-1,2.51-1.62,6-1.61,7.37,3.27,11.43.79.61,3.2,1.29,6.14,1.69,9.11.25,1.8.68,3.9-2.13,4.43a1.31,1.31,0,0,0-.9,1.61,1.64,1.64,0,0,0,1.5,1.09c2.62.43,4.55-.17,4.89-3.09.54-4.6,1.11-9.21,1.31-13.84.14-3,1.21-4.2,4.29-4.2,4.85,0,9.75.68,14.54-.7,1.47-.42,2.28.24,2.68,1.71a67.2,67.2,0,0,0,2.85,8.3c1.17,2.8-1.76,6.8-5.44,7.57-1.38.29-2.59.52-2.32,2.15s1.82,1.24,2.81,1.26C86.4,48.4,92.92,42,93,38a27.86,27.86,0,0,1,1.63-7.47,50.9,50.9,0,0,0,15.06,8.89,7.07,7.07,0,0,1,3.9,8.51c-.29,1-.27,2,.82,2.15s2.62.76,3.18-.93c.35-1,.9-2.1.5-3.29-1.44-4.26-2.89-8.36-6.15-11.85-3.39-3.65-6.84-7.64-6.58-13.45,2.3,1.92,4.53,3.77,6.74,5.64a17.36,17.36,0,0,0,8.37,3.47c4.4.8,8-1.66,9.6-6.2C130.38,22.57,130.89,21.47,130,20.92Z"/></g></g></svg>