<svg xmlns="http://www.w3.org/2000/svg" viewBox="0 0 43.38 43.44"><defs><style>.cls-1{fill:#f1bf72;}</style></defs><g id="圖層_2" data-name="圖層 2"><g id="分離模式"><path class="cls-1" d="M22,17.87a4.65,4.65,0,1,0,4.66,4.6A4.74,4.74,0,0,0,22,17.87Z"/><path class="cls-1" d="M33.31,17.38c-.07-3.63-2.3-5.94-5.89-6s-7.28-.05-10.92,0a5.58,5.58,0,0,0-5.89,5.78q-.11,5.57,0,11.14a5.56,5.56,0,0,0,5.66,5.78c3.78.08,7.57.08,11.35,0a5.57,5.57,0,0,0,5.68-5.77c.06-1.82,0-3.64,0-5.46S33.35,19.2,33.31,17.38ZM21.79,30.23A7.83,7.83,0,0,1,14,22.34a7.88,7.88,0,0,1,15.76.47A7.85,7.85,0,0,1,21.79,30.23Zm7.74-13.44a1.54,1.54,0,1,1,1.58-1.54A1.56,1.56,0,0,1,29.53,16.79Z"/><path class="cls-1" d="M39,7.84C34.76,2.64,28-.36,20.23,0A21.35,21.35,0,0,0,4.05,9.34a19.43,19.43,0,0,0-4,13.4c.41,4.7,2.05,9.8,5.22,13.4a21.81,21.81,0,0,0,13.82,7l4.81.3a19,19,0,0,0,15-8.5,26.33,26.33,0,0,0,4.5-15.2A20.37,20.37,0,0,0,39,7.84ZM36.35,28.57a8.35,8.35,0,0,1-8.26,8.08c-2.11.08-4.23,0-6.35,0-2,0-3.94,0-5.9,0a8.36,8.36,0,0,1-8.37-8.2c-.08-4-.09-8,0-12A8.3,8.3,0,0,1,15.73,8.4c4.16-.09,8.32-.1,12.47,0a8.27,8.27,0,0,1,8.15,8C36.46,20.43,36.45,24.5,36.35,28.57Z"/></g></g></svg>