<svg xmlns="http://www.w3.org/2000/svg" viewBox="0 0 160 54.94"><defs><style>.cls-1{fill:#3a464a;}</style></defs><g id="圖層_2" data-name="圖層 2"><g id="分離模式"><path class="cls-1" d="M11.34,8.3H34.49a1.29,1.29,0,0,0,0-2.58H6.07L7.48,1.58C8,0,5.52-.68,5,.89L1.06,12.44C.52,14,3,14.7,3.55,13.13S4.65,9.91,5.19,8.3H8.75V27.57H1.25a1.3,1.3,0,0,0,0,2.59H8.33L1,51.87c-.54,1.58,2,2.26,2.5.69Q6.74,42.84,10,33.13l6.6,19.43a.8.8,0,0,0,.08.16,1.17,1.17,0,0,0,1.17.83h15.7a1.3,1.3,0,0,0,0-2.59H27.36l7.4-21.53a1.4,1.4,0,0,0,.09-.31,1.09,1.09,0,0,0,0-.56V11.92a1.2,1.2,0,0,0-.35-.88s0,0,0,0l0,0a1.2,1.2,0,0,0-.88-.35H17.89A1.16,1.16,0,0,0,17,11L17,11a0,0,0,0,1,0,0,1.21,1.21,0,0,0-.35.89V27.57H11.34ZM24.11,51H18.83q-3.54-10.4-7.07-20.8H17ZM19.7,30.16H31.78q-3,8.79-6,17.58Zm-.51-16.95h13.1V27.57H19.19Z"/><path class="cls-1" d="M49.62,8.3H72.78a1.29,1.29,0,0,0,0-2.58H44.36c.46-1.38.93-2.76,1.4-4.14C46.3,0,43.8-.68,43.27.89L39.34,12.44c-.53,1.58,2,2.26,2.5.69s1.09-3.22,1.64-4.83H47V27.57H39.53a1.3,1.3,0,0,0,0,2.59h7.08Q42.92,41,39.24,51.87c-.54,1.58,2,2.26,2.49.69l6.6-19.43,6.6,19.43c0,.06,0,.11.07.16a1.19,1.19,0,0,0,1.18.83H71.87a1.3,1.3,0,0,0,0-2.59H65.65Q69.34,40.19,73,29.43a1,1,0,0,0,.1-.31,1.08,1.08,0,0,0,0-.56V11.92a1.2,1.2,0,0,0-.34-.88s0,0,0,0l0,0a1.2,1.2,0,0,0-.88-.35H56.18a1.2,1.2,0,0,0-.88.35l0,0,0,0a1.21,1.21,0,0,0-.35.89V27.57H49.62ZM62.4,51H57.11l-7.06-20.8h5.21ZM58,30.16H70.06Q67,39,64,47.74Zm-.52-16.95H70.58V27.57H57.47Z"/><path class="cls-1" d="M100.16,14.25a20,20,0,0,0,.17-2.62,11,11,0,0,0-.62-3.8A7.15,7.15,0,0,0,97.81,5a8.19,8.19,0,0,0-3.15-1.77,15.67,15.67,0,0,0-4.77-.61H84.62a1.86,1.86,0,0,0-1,.3A1.51,1.51,0,0,0,83,4L78.55,26.27a1.62,1.62,0,0,0,0,.64.77.77,0,0,0,.22.42,1,1,0,0,0,.37.22,1.51,1.51,0,0,0,.48.07h5.54a19.5,19.5,0,0,0,4.27-.41,14.06,14.06,0,0,0,3.22-1.14,12.24,12.24,0,0,0,2.58-1.73,13.79,13.79,0,0,0,2-2.2,14.57,14.57,0,0,0,1.46-2.5,18.55,18.55,0,0,0,1-2.67A20.49,20.49,0,0,0,100.16,14.25Zm-3.59.56a15.77,15.77,0,0,1-.79,2.92,14.24,14.24,0,0,1-1.39,2.72,9.72,9.72,0,0,1-2.07,2.27,9.62,9.62,0,0,1-2.8,1.55,11.72,11.72,0,0,1-3.94.57H82.14L86,5.39H89.5A10.53,10.53,0,0,1,93,5.88a5.87,5.87,0,0,1,2.17,1.36,5.05,5.05,0,0,1,1.24,2,8.2,8.2,0,0,1,.4,2.63A17.19,17.19,0,0,1,96.57,14.81Z"/><path class="cls-1" d="M116.83,22.65a13.69,13.69,0,0,0,1.46-4.13l3.09-15.39a.41.41,0,0,0,0-.27.37.37,0,0,0-.24-.18,2.69,2.69,0,0,0-.49-.12,5.59,5.59,0,0,0-.77,0,6,6,0,0,0-.8,0,3.13,3.13,0,0,0-.52.12.71.71,0,0,0-.31.18.49.49,0,0,0-.13.27l-3,15.26a10.84,10.84,0,0,1-1,2.88,7.52,7.52,0,0,1-1.63,2.13,6.42,6.42,0,0,1-2.18,1.3,7.71,7.71,0,0,1-2.67.45,6.77,6.77,0,0,1-2.52-.43,3.64,3.64,0,0,1-1.65-1.27,4.58,4.58,0,0,1-.75-2.13,10.13,10.13,0,0,1,.19-3l3-15.22a.49.49,0,0,0,0-.27.37.37,0,0,0-.23-.18,3.07,3.07,0,0,0-.5-.12,5.72,5.72,0,0,0-.79,0,6,6,0,0,0-.8,0,3.88,3.88,0,0,0-.53.12.75.75,0,0,0-.32.18.47.47,0,0,0-.12.27l-3,15.26a11.14,11.14,0,0,0-.18,4.17,6.33,6.33,0,0,0,1.3,3,6.11,6.11,0,0,0,2.65,1.82,11.4,11.4,0,0,0,3.89.6,12.76,12.76,0,0,0,3.94-.59,10.07,10.07,0,0,0,5.72-4.74Z"/><path class="cls-1" d="M159,2.91a.46.46,0,0,0-.22-.18,1.77,1.77,0,0,0-.46-.12,7.15,7.15,0,0,0-1.51,0,2.34,2.34,0,0,0-.49.12.72.72,0,0,0-.29.18.6.6,0,0,0-.14.26l-2.72,13.54c-.21,1.05-.42,2.15-.63,3.28s-.41,2.23-.59,3.28h0c-.29-.85-.57-1.69-.86-2.53s-.59-1.67-.88-2.51L145.41,4.74c-.16-.42-.3-.75-.43-1a2.73,2.73,0,0,0-.44-.65,1.38,1.38,0,0,0-.6-.34,2.8,2.8,0,0,0-.81-.1H141.6a1.77,1.77,0,0,0-1,.33,1.63,1.63,0,0,0-.65,1.1l-4.05,20.35L132.49,3.23a1,1,0,0,0-.14-.36.63.63,0,0,0-.34-.22,2.89,2.89,0,0,0-.63-.11c-.27,0-.61,0-1,0s-.68,0-.94,0a3.12,3.12,0,0,0-.64.11,1.13,1.13,0,0,0-.41.21,1.72,1.72,0,0,0-.28.35l-13,23.21a3.18,3.18,0,0,0-.27.69.39.39,0,0,0,.08.39.9.9,0,0,0,.48.19,7.72,7.72,0,0,0,.93,0c.34,0,.64,0,.88,0a2.17,2.17,0,0,0,.58-.1.93.93,0,0,0,.34-.2,1.07,1.07,0,0,0,.22-.32l3.27-6H132l.92,6.08a.7.7,0,0,0,.1.29.52.52,0,0,0,.24.19,1.63,1.63,0,0,0,.47.09c.21,0,.45,0,.74,0a9.75,9.75,0,0,0,1,0l.31-.05.24.05a5.22,5.22,0,0,0,.74,0,5.69,5.69,0,0,0,.77,0l.52-.12a.91.91,0,0,0,.31-.18.59.59,0,0,0,.14-.27l2.9-14.56.6-3.13c.19-1,.37-2.09.54-3.15h0c.29,1,.6,1.9.91,2.85l1,2.85,4.69,13.32c.16.45.3.83.44,1.13a2.54,2.54,0,0,0,.46.73,1.44,1.44,0,0,0,.61.4,2.6,2.6,0,0,0,.85.12h1.25a1.81,1.81,0,0,0,.51-.08,1.65,1.65,0,0,0,.47-.25,1.71,1.71,0,0,0,.39-.45,1.63,1.63,0,0,0,.24-.65L159,3.17A.44.44,0,0,0,159,2.91Zm-36,15.5L129.71,6h0l1.87,12.46Z"/><path class="cls-1" d="M101.16,41.2a21.84,21.84,0,0,0,.17-2.62,10.68,10.68,0,0,0-.63-3.79A7.27,7.27,0,0,0,98.81,32a8.5,8.5,0,0,0-3.16-1.77,16,16,0,0,0-4.77-.6H85.61a1.81,1.81,0,0,0-1,.3A1.49,1.49,0,0,0,84,30.94L79.55,53.22a1.35,1.35,0,0,0,0,.65.84.84,0,0,0,.21.41.87.87,0,0,0,.38.23,1.78,1.78,0,0,0,.47.06h5.54a19.49,19.49,0,0,0,4.27-.4A14.14,14.14,0,0,0,93.61,53a12.08,12.08,0,0,0,2.57-1.74,13.23,13.23,0,0,0,2-2.19,15,15,0,0,0,1.46-2.5,19.17,19.17,0,0,0,1-2.68A19.86,19.86,0,0,0,101.16,41.2Zm-3.6.56a15.12,15.12,0,0,1-.79,2.93,13.69,13.69,0,0,1-1.39,2.72,9.66,9.66,0,0,1-2.06,2.27,9.86,9.86,0,0,1-2.8,1.54,11.76,11.76,0,0,1-3.94.57H83.14L87,32.35H90.5a10.21,10.21,0,0,1,3.5.49,5.9,5.9,0,0,1,2.17,1.35,5.11,5.11,0,0,1,1.25,2.06,8.42,8.42,0,0,1,.39,2.62A17.19,17.19,0,0,1,97.56,41.76Z"/><path class="cls-1" d="M117.82,49.61a13.7,13.7,0,0,0,1.47-4.13l3.09-15.39a.47.47,0,0,0,0-.27.44.44,0,0,0-.24-.19,3,3,0,0,0-.49-.11,5.56,5.56,0,0,0-.78-.05,5.77,5.77,0,0,0-.8.05,3.85,3.85,0,0,0-.52.11.78.78,0,0,0-.31.19.45.45,0,0,0-.12.27L116,45.34a10.57,10.57,0,0,1-1,2.89,7.41,7.41,0,0,1-1.62,2.12,6.64,6.64,0,0,1-2.18,1.31,8,8,0,0,1-2.68.44,6.78,6.78,0,0,1-2.52-.42,3.66,3.66,0,0,1-1.65-1.28,4.39,4.39,0,0,1-.74-2.12,9.84,9.84,0,0,1,.18-3l3-15.21a.35.35,0,0,0,0-.27.38.38,0,0,0-.23-.19,3,3,0,0,0-.49-.11,5.61,5.61,0,0,0-.79-.05,5.77,5.77,0,0,0-.8.05,3.71,3.71,0,0,0-.53.11.7.7,0,0,0-.32.19.46.46,0,0,0-.13.27l-3,15.25a11.34,11.34,0,0,0-.17,4.17,6.31,6.31,0,0,0,1.3,3,6,6,0,0,0,2.64,1.81,11.21,11.21,0,0,0,3.9.61,12.56,12.56,0,0,0,3.94-.6,10,10,0,0,0,5.71-4.73Z"/><path class="cls-1" d="M160,29.87a.5.5,0,0,0-.23-.19,1.47,1.47,0,0,0-.46-.11,5.22,5.22,0,0,0-.74,0,5.5,5.5,0,0,0-.77,0,2,2,0,0,0-.49.11.81.81,0,0,0-.29.19.53.53,0,0,0-.13.26l-2.73,13.53c-.2,1.06-.41,2.15-.62,3.29s-.41,2.22-.59,3.28h0c-.28-.85-.57-1.69-.86-2.53s-.58-1.67-.88-2.51l-4.73-13.5c-.15-.41-.3-.75-.42-1a2.33,2.33,0,0,0-.45-.65,1.34,1.34,0,0,0-.6-.35,3.23,3.23,0,0,0-.81-.09H142.6a1.85,1.85,0,0,0-1,.32A1.62,1.62,0,0,0,141,31L136.9,51.36l-3.42-21.18a.85.85,0,0,0-.13-.35.61.61,0,0,0-.34-.22,2.4,2.4,0,0,0-.64-.11c-.26,0-.61,0-1,0s-.69,0-1,0a2.39,2.39,0,0,0-.63.11,1.06,1.06,0,0,0-.41.21,1.5,1.5,0,0,0-.29.35l-13,23.21a3,3,0,0,0-.28.68.44.44,0,0,0,.08.4.83.83,0,0,0,.48.18,7.63,7.63,0,0,0,.93,0c.35,0,.64,0,.88,0a2.49,2.49,0,0,0,.58-.11,1,1,0,0,0,.35-.2,1.38,1.38,0,0,0,.22-.32l3.26-6H133l.93,6.08a.62.62,0,0,0,.09.29.48.48,0,0,0,.25.18,1.45,1.45,0,0,0,.47.1c.2,0,.45,0,.73,0a9.84,9.84,0,0,0,1,0,1.42,1.42,0,0,0,.31-.06l.24,0a5,5,0,0,0,.74,0,5.36,5.36,0,0,0,.76,0,2.51,2.51,0,0,0,.52-.12.62.62,0,0,0,.31-.18.72.72,0,0,0,.15-.27l2.89-14.56c.21-1,.41-2.08.6-3.13s.38-2.09.54-3.14h0c.3.95.6,1.9.92,2.84s.63,1.9.95,2.85l4.7,13.33c.15.45.3.82.43,1.13a2.7,2.7,0,0,0,.47.73,1.31,1.31,0,0,0,.6.39,2.68,2.68,0,0,0,.85.12h1.26a1.74,1.74,0,0,0,.5-.08,1.26,1.26,0,0,0,.47-.25,1.71,1.71,0,0,0,.4-.44,1.77,1.77,0,0,0,.23-.66L160,30.13A.42.42,0,0,0,160,29.87Zm-36,15.49,6.76-12.45h0l1.87,12.45Z"/></g></g></svg>