<svg xmlns="http://www.w3.org/2000/svg" viewBox="0 0 39.58 39.63"><defs><style>.cls-1{fill:#ffa4a4;}</style></defs><g id="圖層_2" data-name="圖層 2"><g id="分離模式"><path class="cls-1" d="M35.55,7.15C31.72,2.4,25.55-.33,18.46,0A19.49,19.49,0,0,0,3.7,8.52,17.69,17.69,0,0,0,.06,20.74C.43,25,1.92,29.69,4.82,33a19.88,19.88,0,0,0,12.61,6.39l4.39.27a17.33,17.33,0,0,0,13.63-7.75A24,24,0,0,0,39.56,18,18.6,18.6,0,0,0,35.55,7.15Zm-4.83,21a1,1,0,0,1-1,1H9.94a1,1,0,0,1-1-1L8.88,17.11a1,1,0,0,1,.41-.8l10-7.07a1,1,0,0,1,1.12,0l10,7.07a1,1,0,0,1,.41.79Z"/><path class="cls-1" d="M27.12,25.47a.63.63,0,0,1-.65.61H13.21a.63.63,0,0,1-.65-.61l-.06-7a.61.61,0,0,1,.28-.51l6.67-4.5a.68.68,0,0,1,.75,0l6.68,4.5a.64.64,0,0,1,.28.51Z"/></g></g></svg>