<svg xmlns="http://www.w3.org/2000/svg" viewBox="0 0 42.38 42.44"><defs><style>.cls-1{fill:#74bad1;}</style></defs><g id="圖層_2" data-name="圖層 2"><g id="分離模式"><path class="cls-1" d="M23.36,23.14c-.5-6.5.8-8.9,7.3-10v-2.6c-10.8-2.1-12.8,2.6-12,12.4h-6.1v3.8c1.7.1,4.3.2,6.1.2v15.2c-4.4.4-9.9-1.8-13.5-6-3.1-3.6-4.7-8.7-5.1-13.4A19.74,19.74,0,0,1,4,9.34c3.5-5,8.9-8.9,15.8-9.3,7.6-.4,14.2,2.6,18.3,7.8a20.7,20.7,0,0,1,4.3,11.9A26.78,26.78,0,0,1,38,34.94c-3.5,5.1-8.7,7.3-14.6,7.5V27.14c1.9-.2,5.2.1,6.3-.8a4.66,4.66,0,0,0,.2-3.2Z"/></g></g></svg>