<svg xmlns="http://www.w3.org/2000/svg" viewBox="0 0 42.17 43.1"><defs><style>.cls-1{fill:#ffa4a4;}</style></defs><g id="圖層_2" data-name="圖層 2"><g id="分離模式"><path class="cls-1" d="M40.17,11.3C36.67,4.3,29.57,0,21.07,0,9.07,0,2.47,6.6.37,18.7A20.26,20.26,0,0,0,4.87,36a21.81,21.81,0,0,0,16.2,7.1c12,0,19.1-7,20.5-14.6C43,21.6,41.67,14.3,40.17,11.3Zm-9.7,20.9c-1.5,2.6-4.7,3.3-7.9,3.3a12.94,12.94,0,0,1-9.4-4.4c-2.1-2.3-3.2-5.6-3.2-10,0-4.2,1-7.5,3.1-9.9s5.2-3.5,9.5-3.5a18.42,18.42,0,0,1,6.2,1.7l-1.2,2.4a6.86,6.86,0,0,0-4.9-1.5c-2.9,0-5.8,1-7.2,2.7A12.27,12.27,0,0,0,13,21c0,7.2,3.9,11.7,9.6,11.7,2.2,0,5.3-.9,5.9-2.1.7-1.4,1.1-5.2,0-6.4s-6.7,0-6.7,0V21.6s6.6-1.9,8.4,0C32,23.8,31.67,30,30.47,32.2Z"/></g></g></svg>