<svg xmlns="http://www.w3.org/2000/svg" viewBox="0 0 50 39.49"><defs><style>.cls-1,.cls-2{fill:#3a464a;}.cls-1{opacity:0.3;}.cls-3{font-size:11.93px;fill:#fff;font-family:NexaBold, Nexa Bold;}</style></defs><g id="圖層_2" data-name="圖層 2"><g id="分離模式"><path class="cls-1" d="M25.16,12.57c-12.72,0-21.25-2.85-21.25-5.51s8.53-5.52,21.25-5.52S46.41,4.39,46.41,7.06,37.87,12.57,25.16,12.57Z"/><path class="cls-2" d="M17.44,5C13.28,5,7.21,5.9,7.21,7.06s6.07,2,10.23,2,4.77-.89,4.77-2S21.6,5,17.44,5Zm.27,3.34c-2.66,0-2.66-2.59,0-2.59s3.07.61,3.07,1.3S20.3,8.35,17.71,8.35Z"/><path class="cls-2" d="M25,0C12.71,0,0,2.64,0,7.06V32.82c0,3.68,11.21,6.67,25,6.67s25-3,25-6.67V7.06C50,2.64,37.29,0,25,0Zm0,12.57c-12.71,0-21.25-2.85-21.25-5.51S12.29,1.54,25,1.54,46.25,4.39,46.25,7.06,37.71,12.57,25,12.57Z"/><text class="cls-3" transform="translate(9.15 29.01)">NEXT</text></g></g></svg>