<svg xmlns="http://www.w3.org/2000/svg" viewBox="0 0 28 22.12"><defs><style>.cls-1,.cls-2{fill:#3a464a;}.cls-1{opacity:0.3;}.cls-3{isolation:isolate;}.cls-4{fill:#fff;}</style></defs><g id="圖層_2" data-name="圖層 2"><g id="分離模式"><path class="cls-1" d="M14,7C6.88,7,2.1,5.44,2.1,4S6.88.86,14,.86,25.9,2.46,25.9,4,21.12,7,14,7Z"/><path class="cls-2" d="M9.77,2.81C7.44,2.81,4,3.3,4,4S7.44,5.1,9.77,5.1,12.44,4.6,12.44,4,12.09,2.81,9.77,2.81Zm.15,1.87c-1.49,0-1.49-1.45,0-1.45s1.72.34,1.72.72S11.37,4.68,9.92,4.68Z"/><path class="cls-2" d="M14,0C7.12,0,0,1.48,0,4V18.38c0,2.06,6.28,3.74,14,3.74s14-1.68,14-3.74V4C28,1.48,20.88,0,14,0Zm0,7C6.88,7,2.1,5.44,2.1,4S6.88.86,14,.86,25.9,2.46,25.9,4,21.12,7,14,7Z"/><g id="Sign_up" data-name="Sign up" class="cls-3"><g class="cls-3"><path class="cls-4" d="M10.49,14.87l-1,.18-.49-2.68H9l-.36.83c-.18.44-.36.9-.55,1.39H7.38c-.18-.49-.37-1-.56-1.4l-.35-.82h0c0,.1-.09.42-.2,1S6,14.47,5.93,15.05L5,14.87c.21-.92.39-1.76.54-2.51s.24-1.18.26-1.29l1-.1c0,.07.13.36.33.84s.41,1,.67,1.67h0l.65-1.6c.23-.56.36-.87.37-.91l1,.08c0,.07.08.47.21,1.21S10.3,13.87,10.49,14.87Z"/><path class="cls-4" d="M15.11,13a2.3,2.3,0,0,1-.17.88,2,2,0,0,1-.49.69,1.72,1.72,0,0,1-.66.4,2.21,2.21,0,0,1-.78.14,2.44,2.44,0,0,1-.77-.13,1.95,1.95,0,0,1-1.14-1.08,2.2,2.2,0,0,1-.19-.9,2.46,2.46,0,0,1,.15-.84,2,2,0,0,1,.46-.68,1.93,1.93,0,0,1,.66-.43,2.23,2.23,0,0,1,.83-.15,2.38,2.38,0,0,1,.81.14,2,2,0,0,1,.65.4,2.08,2.08,0,0,1,.48.7A2.27,2.27,0,0,1,15.11,13Zm-1,0a2,2,0,0,0-.1-.59,1.18,1.18,0,0,0-.31-.49,1.21,1.21,0,0,0-.3-.2,1.07,1.07,0,0,0-.76,0,1.08,1.08,0,0,0-.32.22,1.32,1.32,0,0,0-.28.46,1.76,1.76,0,0,0,0,1.17,1.19,1.19,0,0,0,.3.45,1,1,0,0,0,.3.2,1,1,0,0,0,.38.07,1,1,0,0,0,.38-.07,1,1,0,0,0,.31-.2,1.25,1.25,0,0,0,.29-.44A1.62,1.62,0,0,0,14.1,13Z"/><path class="cls-4" d="M19.54,14.73l-.9.35c-.08-.1-.22-.3-.44-.57l-1-1.28v-.06a1.49,1.49,0,0,0,.26-.1,1.17,1.17,0,0,0,.27-.19.91.91,0,0,0,.17-.23.87.87,0,0,0,.05-.31.57.57,0,0,0-.09-.32.56.56,0,0,0-.26-.22,1.34,1.34,0,0,0-.27-.07H16.9v.72c0,.25,0,.47,0,.67s0,.68,0,1.06V15h-1c0-.16,0-.39,0-.69v-2c0-.3,0-.72,0-1.26h.87l.76,0a2.53,2.53,0,0,1,.62.13,1.19,1.19,0,0,1,.61.4,1,1,0,0,1,.2.6,1,1,0,0,1-.21.65,1.64,1.64,0,0,1-.43.41v0c.2.26.42.52.66.79A7.09,7.09,0,0,1,19.54,14.73Z"/><path class="cls-4" d="M23,15H20.05c0-.11,0-.33,0-.69s0-.79,0-1.33c0-.23,0-.52,0-.87s0-.72,0-1.08H23v.73H21c0,.15,0,.3,0,.47v.45h1.93v.59H21v.6c0,.16,0,.3,0,.4h2Z"/></g></g></g></g></svg>